<svg id="Layer_1" data-name="Layer 1" xmlns="http://www.w3.org/2000/svg" width="973.54" height="781.99" viewBox="0 0 973.54 781.99">
  <defs>
    <style>
      .cls-1, .cls-11, .cls-12, .cls-17, .cls-18, .cls-2, .cls-3, .cls-33, .cls-34, .cls-35, .cls-36, .cls-38, .cls-39, .cls-40, .cls-7 {
        isolation: isolate;
      }

      .cls-17, .cls-2, .cls-3, .cls-39, .cls-40, .cls-5, .cls-7 {
        fill: #1088a1;
      }

      .cls-10, .cls-11, .cls-12, .cls-13, .cls-14, .cls-15, .cls-16, .cls-17, .cls-18, .cls-2, .cls-20, .cls-21, .cls-22, .cls-23, .cls-24, .cls-25, .cls-26, .cls-27, .cls-28, .cls-29, .cls-30, .cls-37, .cls-38, .cls-39, .cls-4, .cls-40, .cls-41, .cls-42, .cls-43, .cls-44, .cls-45, .cls-46, .cls-47, .cls-48, .cls-49, .cls-5, .cls-50, .cls-51, .cls-52, .cls-53, .cls-54, .cls-55, .cls-56, .cls-57, .cls-58, .cls-59, .cls-6, .cls-60, .cls-61, .cls-7, .cls-8, .cls-9 {
        fill-rule: evenodd;
      }

      .cls-2 {
        opacity: 0.11;
      }

      .cls-17, .cls-3 {
        opacity: 0.4;
      }

      .cls-4 {
        fill: #126a75;
      }

      .cls-6 {
        fill: #0c5257;
      }

      .cls-7 {
        opacity: 0.2;
      }

      .cls-8 {
        fill: #d4c6e1;
      }

      .cls-9 {
        fill: #e8dfee;
      }

      .cls-10 {
        fill: #c1aed5;
      }

      .cls-11, .cls-12, .cls-33, .cls-34, .cls-35, .cls-36, .cls-37, .cls-38 {
        fill: #ec2227;
      }

      .cls-11, .cls-33, .cls-40 {
        opacity: 0.7;
      }

      .cls-12, .cls-18, .cls-35 {
        opacity: 0.8;
      }

      .cls-13, .cls-32 {
        fill: #fff;
      }

      .cls-14 {
        fill: #f2ecf6;
      }

      .cls-15 {
        fill: #166f7a;
      }

      .cls-16 {
        fill: #dce7f6;
      }

      .cls-18 {
        fill: #127784;
      }

      .cls-19, .cls-30 {
        fill: #f5f5fa;
      }

      .cls-20 {
        fill: #3c2e89;
      }

      .cls-21 {
        fill: #f68d6a;
      }

      .cls-22 {
        fill: #f4e7b3;
      }

      .cls-23 {
        fill: #59ada9;
      }

      .cls-24 {
        fill: #146a6b;
      }

      .cls-25 {
        fill: #3d9992;
      }

      .cls-26 {
        fill: #725ca7;
      }

      .cls-27 {
        fill: #318582;
      }

      .cls-28 {
        fill: #187675;
      }

      .cls-29 {
        fill: #093539;
      }

      .cls-31 {
        fill: #e5e5e5;
      }

      .cls-34, .cls-38 {
        opacity: 0.3;
      }

      .cls-36 {
        opacity: 0.6;
      }

      .cls-39 {
        opacity: 0.06;
      }

      .cls-41 {
        fill: #f7f4fa;
      }

      .cls-42 {
        fill: #fcdcb6;
      }

      .cls-43 {
        fill: #f9a01b;
      }

      .cls-44 {
        fill: #191840;
      }

      .cls-45 {
        fill: #293478;
      }

      .cls-46 {
        fill: #1e2158;
      }

      .cls-47 {
        fill: #f37321;
      }

      .cls-48 {
        fill: #221f54;
      }

      .cls-49 {
        fill: #fecc90;
      }

      .cls-50 {
        fill: #f3f9fd;
      }

      .cls-51 {
        fill: #959dcf;
      }

      .cls-52 {
        fill: #a4acd7;
      }

      .cls-53 {
        fill: #fdbe71;
      }

      .cls-54 {
        fill: #ea444f;
      }

      .cls-55 {
        fill: #332e7c;
      }

      .cls-56 {
        fill: #f06aa3;
      }

      .cls-57 {
        fill: #f193be;
      }

      .cls-58 {
        fill: #ed1c24;
      }

      .cls-59 {
        fill: #2b2868;
      }

      .cls-60 {
        fill: #ef3e4e;
      }

      .cls-61 {
        fill: #ee2631;
      }
    </style>
  </defs>
  <g class="cls-1">
    <path class="cls-2" d="M10.2,485.82H96.57a10.26,10.26,0,0,1,10.2,10.28v86.37a10.19,10.19,0,0,1-10.2,10.2H10.2A10.19,10.19,0,0,1,0,582.47V496.1a10.31,10.31,0,0,1,10.2-10.28M145.68,600.88h42.14a5,5,0,0,1,5,5V648a5,5,0,0,1-5,5H145.68a5,5,0,0,1-5-5V605.86a4.94,4.94,0,0,1,5-5ZM223.74,0h86A10.19,10.19,0,0,1,320,10.2V88.6a10.2,10.2,0,0,1-10.2,10.21h-86a10.2,10.2,0,0,1-10.2-10.21V10.2A10.3,10.3,0,0,1,223.74,0ZM909.66,45h57.08a6.89,6.89,0,0,1,6.8,6.81v57.07a6.89,6.89,0,0,1-6.8,6.81H909.66a6.89,6.89,0,0,1-6.8-6.81V51.68A6.76,6.76,0,0,1,909.66,45ZM748.06,11.28h75.66a8.93,8.93,0,0,1,9,9V95.9a8.93,8.93,0,0,1-9,9H748.06a8.92,8.92,0,0,1-9-9V20.24A8.92,8.92,0,0,1,748.06,11.28Zm119.29,700h57.08a6.89,6.89,0,0,1,6.8,6.81v57.07a6.89,6.89,0,0,1-6.8,6.81H867.35a6.89,6.89,0,0,1-6.8-6.81V718.11A6.83,6.83,0,0,1,867.35,711.3ZM277.84,112.08H804.22a62.53,62.53,0,0,1,62.39,62.39v32.35h46.7A12.72,12.72,0,0,1,926,219.6v92.66c0,7.06-5.73,11.95-12.78,11.95H866.52V653.07a62.52,62.52,0,0,1-62.38,62.38h-1v24.14a12.83,12.83,0,0,1-12.77,12.78H682.93a12.83,12.83,0,0,1-12.77-12.78V715.45H393.9v47.46a9.34,9.34,0,0,1-9.29,9.29H306.54a9.33,9.33,0,0,1-9.29-9.29V715.45H277.67a62.53,62.53,0,0,1-62.39-62.38V469h-80.8a29.34,29.34,0,0,1-29.29-29.29V240a29.4,29.4,0,0,1,29.29-29.29h80.8V174.47a62.89,62.89,0,0,1,62.56-62.39Z"/>
    <path class="cls-3" d="M431.24,144.19a.79.79,0,0,0-.1-1.1.75.75,0,0,0-.9,0l-.2.2-.4.5-1.2,1.6-.2.2a.8.8,0,0,0,.2,1.1.77.77,0,0,0,1-.1l.2-.3,1.2-1.6.4-.5Zm4.3-6.6a.7.7,0,0,0-.4-1,.62.62,0,0,0-.7.1l-.2.2-.3.4-.3.5-1.2,1.6a.79.79,0,0,0,1.3.9h0l.3-.4,1.2-2,.3-.3Zm3.3-7.2a.62.62,0,0,0-.1-.7.8.8,0,0,0-1.1-.3c-.1.1-.3.2-.3.4l-.2.4-1,2.5a.91.91,0,0,0,.3,1.1,1,1,0,0,0,.9-.1c.1-.1.2-.2.2-.3l1-2.5.3-.5Zm2.3-7.5a.71.71,0,0,0-.6-.9.67.67,0,0,0-.8.3.37.37,0,0,0-.1.3l-.5,2.5-.2.5a.88.88,0,0,0,.5,1,.78.78,0,0,0,.8-.2c.1-.1.1-.2.2-.3l.2-.5.4-2,.1-.7Zm1.3-7.8a.77.77,0,0,0-.7-.8.71.71,0,0,0-.6.3.84.84,0,0,0-.2.4v.5l-.5,2.5a1,1,0,0,0,.2.7.78.78,0,0,0,1.1,0,.7.7,0,0,0,.2-.4l.5-2.5Zm.1-7.9a.75.75,0,0,0-1.5.1v3.1a.79.79,0,0,0,.8.8.75.75,0,0,0,.7-.5c0-.1.1-.2.1-.3v-2.5l-.1-.7Zm-.9-7.8a.82.82,0,0,0-.4-.6.7.7,0,0,0-1,.4.75.75,0,0,0-.1.5l.1.6.4,2,.1.4a1,1,0,0,0,.9.7c.3,0,.5-.3.6-.5v-.3l-.5-2.5Zm-2-7.7a.79.79,0,0,0-1.5.5l.2.6.6,1.5.1.5.1.4a.79.79,0,1,0,1.5-.5l-.1-.4-.8-2-.1-.6Zm-3-7.2a.8.8,0,0,0-1.1-.3.67.67,0,0,0-.4.7.37.37,0,0,0,.1.3l1,2.5.2.4a.73.73,0,0,0,1,.4,1,1,0,0,0,.4-.5.45.45,0,0,0,0-.5l-1.2-3Zm-4.1-6.8a.6.6,0,0,0-.6-.3.77.77,0,0,0-.8.7.75.75,0,0,0,.1.5l.2.3,1.2,1.6.3.5a.71.71,0,0,0,1.1.2c.2-.1.3-.4.4-.6a.9.9,0,0,0-.1-.5l-1.2-2-.3-.4Zm-4.9-6.2a.78.78,0,0,0-1.1,0c-.2.1-.2.3-.2.6a.76.76,0,0,0,.2.5l1.2,1.2.6.8.2.3a.79.79,0,0,0,1.1.1.83.83,0,0,0,.3-.8c0-.1-.1-.2-.2-.3l-.2-.3-1.6-1.6Zm-5.8-5.3a.75.75,0,0,0-.8-.1.73.73,0,0,0-.4,1c0,.1.1.2.2.3l.4.3,1.8,1.8a.78.78,0,1,0,1-1.2l-1.8-1.8-.4-.3Zm-6.5-4.5a.8.8,0,0,0-1.1.3,1.1,1.1,0,0,0,0,.8c.1.1.2.2.3.2l.2.1,2,1.2.4.3a.91.91,0,0,0,1.1-.2.88.88,0,0,0,.1-.7c-.1-.1-.2-.3-.3-.3l-2.5-1.5-.2-.2Zm-6.9-3.6a.83.83,0,0,0-1,.5.7.7,0,0,0,.4.9l1.8.9.5.3.5.2a.7.7,0,0,0,1-.4.76.76,0,0,0-.2-.9c-.1-.1-.1-.1-.2-.1l-.5-.2-1.8-.9-.5-.3Zm-7.4-2.7a.45.45,0,0,0-.5,0,.83.83,0,0,0-.5,1,1.21,1.21,0,0,0,.5.5l.8.2,2.1.7a.85.85,0,0,0,1-.6.81.81,0,0,0-.4-.9l-2.1-.7Zm-7.6-2a.78.78,0,0,0-.9.6.84.84,0,0,0,.2.7.52.52,0,0,0,.4.2l.5.1,1.4.2.7.2.5.1a.78.78,0,0,0,.9-.6.67.67,0,0,0-.3-.8.37.37,0,0,0-.3-.1l-.6-.1-2.1-.6-.4.1Zm-7.8-1.1c-.4-.1-.8.3-.9.7s.3.8.7.9h.3l2.1.3.6.1a.78.78,0,0,0,.9-.6.74.74,0,0,0-.4-.8.37.37,0,0,0-.3-.1l-.6-.1-2.1-.3-.3-.1Zm-7.8-.5a.77.77,0,0,0-.8.7.84.84,0,0,0,.4.7c.1,0,.2.1.3.1h3.1a.75.75,0,0,0,.1-1.5h-3.1Zm44.9,99.4a.79.79,0,0,0-.1,1.1.78.78,0,0,0,.8.2c.1,0,.2-.1.3-.2L426,150a.78.78,0,0,0-1.1-1.1h0l-1.9,1.9-.3.4Z"/>
  </g>
  <g>
    <path class="cls-4" d="M393.84,56.09l-27-6.4,26-1.6Z"/>
    <g>
      <path class="cls-5" d="M366.84,49.69l28.2-5.9-2.2,4.3Z"/>
      <path class="cls-5" d="M391.14,51.79l-4.9,9.8-19.4-11.9Z"/>
    </g>
    <path class="cls-6" d="M393.84,56.09l-2.7-4.3-1.8,3.6Z"/>
  </g>
  <path class="cls-3" d="M818.34,598a1.25,1.25,0,0,0-1.7-.2,1.15,1.15,0,0,0-.4,1.2.52.52,0,0,0,.2.4l.5.7,1.6,2,.9.9a1.24,1.24,0,0,0,1.7.1,1.37,1.37,0,0,0,.4-1.2,1.33,1.33,0,0,0-.3-.5l-.3-.4-2-2.5-.6-.5Zm-6-10a1.17,1.17,0,0,0-1.6-.5,1.29,1.29,0,0,0-.6,1.5l.2.4,1.8,3,.4.7a1,1,0,0,0,1.3.5,1.35,1.35,0,0,0,.9-1.5c0-.1-.1-.2-.1-.3l-.4-.7-1.2-2-.4-1-.3-.1Zm-3.5-11a1.22,1.22,0,1,0-2.4.4h0v.2l.7,3.5.2.5.1.2a1.09,1.09,0,0,0,.8.8,1.24,1.24,0,0,0,1.5-.8.85.85,0,0,0,0-.7l-.2-.7-.6-3Zm-.4-11.7a1.61,1.61,0,0,0-.3-.9,1.2,1.2,0,0,0-2.1.7v4.8a1.2,1.2,0,1,0,2.4.2Zm2.5-11.3a1.23,1.23,0,0,0-2.3-.9v.1l-.2.6-.2.5-.1.5-.2.5-.4,2-.2.8a1.18,1.18,0,1,0,2.3.5l.2-.8.4-2,.1-.4.1-.5.2-.5.3-.4Zm5-10.5a1.19,1.19,0,0,0-2-1.3h0l-.9,1.4-.2.4-.5.8a8,8,0,0,0-.8,1.6,1.19,1.19,0,0,0,2.1,1.1c.3-.5.5-1,.8-1.5l.9-1.6Zm7.1-9.3a1.16,1.16,0,0,0-.2-1.7,1.06,1.06,0,0,0-1.2-.2c-.1.1-.3.2-.4.3l-3.2,3.7a1.25,1.25,0,0,0,.2,1.7,1.28,1.28,0,0,0,1.2.2,1.38,1.38,0,0,0,.4-.3Zm19.7-10.1a1.21,1.21,0,0,0,1.2-.7,1.17,1.17,0,0,0-.7-1.6c-.1,0-.2-.1-.3-.1h-4.1l-.6.2-.5.1a1.35,1.35,0,0,0-.9,1.5,1.17,1.17,0,0,0,1,.9h.4l.4-.1.3-.1h3.4l.4-.1Zm6.6,6.9a1.16,1.16,0,0,0,1.4.9,1,1,0,0,0,.9-1.2,11.32,11.32,0,0,0-1.9-5,1.15,1.15,0,0,0-1.7-.1,1.24,1.24,0,0,0-.3,1.5,7.56,7.56,0,0,1,1.6,3.9Zm-3.8,9.1a1.2,1.2,0,0,0-.6,1.6,1.38,1.38,0,0,0,1.1.7.9.9,0,0,0,.5-.1,8.66,8.66,0,0,0,3.9-3.9,1.17,1.17,0,0,0-.5-1.6,1.08,1.08,0,0,0-1.1,0,1.21,1.21,0,0,0-.5.5,6.86,6.86,0,0,1-2.8,2.8Zm-9.8-3.4a1.19,1.19,0,0,0-1.7.4,1.38,1.38,0,0,0-.1,1.1,1.21,1.21,0,0,0,.5.5l.6.4.6.3.6.4,2.4,1.2a1.23,1.23,0,0,0,1.3-2.1c-.1,0-.1-.1-.2-.1l-3.6-1.8-.4-.3Zm-9.4-8a1.1,1.1,0,0,0-1.3,1v.5c0,.2.1.3.2.5l.2.3.3.4,2.9,2.9a1.24,1.24,0,0,0,1.7-.1,1.21,1.21,0,0,0,.1-1.4c-.1-.1-.1-.2-.2-.3l-.5-.4-1.2-1.2-.9-1.2h.2a.52.52,0,0,0,.4-.2l3.8-2.6a1.08,1.08,0,0,0,.4-1.6,1.31,1.31,0,0,0-1.2-.6.7.7,0,0,0-.4.2l-.7.4-.6.4-2.8,1.9a1.5,1.5,0,0,0-.4,1.1Zm-4-9.7a1.22,1.22,0,1,0-2.4.4h0v.2l.1.4.3,1.5.1.4.1.5.1.4.7,1.4a1.17,1.17,0,0,0,2.2-.8.1.1,0,0,0-.1-.1l-.2-.5-.1-.4-.1-.5-.7-2.8V519Zm-1.2-12-1.2,4.9,2.4.3-1.2-5.2Zm2.3.7a1.19,1.19,0,0,0-.7-1.5,1.09,1.09,0,0,0-1.3.4.52.52,0,0,0-.2.4l-.1.3-.1.4-.9,4.5a1.15,1.15,0,0,0,2.2.6c0-.1.1-.2.1-.3l1-4v-.8Zm5.4-10.1a1.2,1.2,0,0,0,0-1.4,1.24,1.24,0,0,0-1.7-.2c-.1.1-.2.1-.2.2l-.4.6-2.1,2.8-.3.5a1.41,1.41,0,0,0,.1,1.4,1.24,1.24,0,0,0,1.7.1l.3-.3.3-.5,2.1-2.8.2-.4Zm7.9-8.7a.54.54,0,0,0,.3-.5,1.24,1.24,0,0,0-.8-1.5,1.38,1.38,0,0,0-1.2.3l-3.5,3.5a1.16,1.16,0,0,0,.1,1.7,1.4,1.4,0,0,0,1.4.2c.1-.1.2-.1.3-.2l3.2-3.2Zm9.3-7.1a1.17,1.17,0,0,0,.3-1.7,1,1,0,0,0-1.1-.5.76.76,0,0,0-.5.2l-.9.6-2.5,1.5-.7.5a1.25,1.25,0,0,0-.2,1.7,1.35,1.35,0,0,0,1.2.5.76.76,0,0,0,.5-.2l.6-.5.5-.3.9-.7.5-.3,1.4-.8Zm10.4-5.6a1.2,1.2,0,0,0-.7-2.3c-.1,0-.1.1-.2.1l-.8.4-.5.3-.5.2-1.5.9-.9.5a1.08,1.08,0,0,0-.4,1.6,1.28,1.28,0,0,0,1.5.5l.9-.4,1-.5.5-.3,1-.4Zm10.4-6.3-4.7,1.4.8,2.3,3.9-3.7Zm.6,2.3a1.24,1.24,0,0,0,.8-1.5,1.17,1.17,0,0,0-1-.9h-.4l-.8.2-1.2.4-.5.2-1.2.4-.5.2-.6.2a1.19,1.19,0,0,0-.7,1.5,1.63,1.63,0,0,0,1,.8.9.9,0,0,0,.5-.1l3.5-1.4Zm11.5-1.9a1.07,1.07,0,0,0,1.1-1.2,1.17,1.17,0,0,0-.8-1.1.9.9,0,0,0-.5-.1h-1.6l-.5.1-.6.1-.5.1-.6.1-.5.1-.4.1a1.17,1.17,0,0,0-1,1.4,1.3,1.3,0,0,0,1.3,1l.4-.1,2.5-.5Zm11.6.9a1.24,1.24,0,0,0,1.4-.9,1.37,1.37,0,0,0-.4-1.2.76.76,0,0,0-.5-.2l-.6-.1-3.5-.7-.7-.1a1,1,0,0,0-.7.2,1.16,1.16,0,0,0-.4,1.6,1.46,1.46,0,0,0,.9.6l.6.1,3.5.7Zm8.3,3.2a1.22,1.22,0,1,0,1.4-2l-.1-.1-2-.8-.2-.1a1.25,1.25,0,0,0-1.6.7,1.18,1.18,0,0,0,.6,1.5l1.4.7.5.1Zm-70.6,137.2a1.28,1.28,0,0,0,1.2.2,1.26,1.26,0,0,0,.7-1.6,1,1,0,0,0-.4-.5l-3-2.5-.7-.6a1.24,1.24,0,0,0-1.7.1,1.13,1.13,0,0,0-.3,1.1l.3.6.7.6,2.4,2,.8.6Z"/>
  <g>
    <path class="cls-4" d="M882,471.19l27.5,3.3-23.8-10.4Z"/>
    <g>
      <path class="cls-5" d="M909.54,474.49l-24.4-15.2.6,4.8Z"/>
      <path class="cls-5" d="M886.14,468.09l1.2,10.9,22.2-4.5Z"/>
    </g>
    <path class="cls-6" d="M882,471.19l4.1-3.1.4,4Z"/>
  </g>
  <path class="cls-3" d="M103.34,419.39a1.12,1.12,0,0,0-1,2l.9.4,1.4.6.8.3.9.4a1.1,1.1,0,0,0,1.2-.3,1,1,0,0,0-.2-1.5c-.1-.1-.2-.1-.3-.2l-.9-.3-2.1-.9-.7-.5ZM94,414a1.07,1.07,0,1,0-1.3,1.7l.3.3,2.5,1.5.8.4a1.13,1.13,0,0,0,1.5-.4,1.08,1.08,0,0,0,0-1.1c-.1-.1-.2-.3-.4-.4l-.2-.1-3-1.8L94,414Zm-6.8-7.6a1.24,1.24,0,0,0-1.5-.5,1.12,1.12,0,0,0-.6,1c0,.2.1.3.1.4v.1L86,409l1.5,2,.2.2a1.07,1.07,0,0,0,1.7-1.3l-1.2-1.2-1-1.5Zm-1.6-10a1,1,0,0,0-.9-1.2,1,1,0,0,0-1,.4.76.76,0,0,0-.2.5v.2l-.1.4v3.9a1.13,1.13,0,0,0,1.3.9,1.17,1.17,0,0,0,.9-1.1h0v-4Zm3.3-10a1.11,1.11,0,0,0-.5-1.4,1.06,1.06,0,0,0-1.2.2c-.1.1-.2.2-.2.3l-.4.9-1.2,2.4-.2.6a1.08,1.08,0,0,0,.65,1.38l0,0a1.31,1.31,0,0,0,1.2-.3c.1-.1.1-.2.2-.3l.2-.6,1.4-2.8v-.4Zm5.3-9.3a1,1,0,0,0-.4-1.5,1.18,1.18,0,0,0-1-.1,1,1,0,0,0-.5.4l-2.3,3.8a1.13,1.13,0,0,0,.4,1.5,1.08,1.08,0,0,0,1.1,0,.78.78,0,0,0,.4-.4c.7-1.3,1.5-2.5,2.3-3.7Zm5.9-9.1a1.1,1.1,0,0,0-.3-1.5,1.27,1.27,0,0,0-1.2,0l-.3.3-2.4,3.6a1.1,1.1,0,0,0,.3,1.5,1.28,1.28,0,0,0,1.2,0c.1-.1.3-.2.3-.3Zm5.9-9.3a1.13,1.13,0,0,0-.4-1.5,1.08,1.08,0,0,0-1.1,0c-.1.1-.3.2-.3.4-.7,1.3-1.5,2.5-2.3,3.7a1.1,1.1,0,0,0,.3,1.5,1.18,1.18,0,0,0,1,.1,1,1,0,0,0,.5-.4c.7-1.3,1.5-2.5,2.3-3.8Zm5.2-9.6a1.12,1.12,0,0,0-2-1l-.4.9-.2.5-.5.9c-.3.5-.5,1-.8,1.5a1.13,1.13,0,0,0,.4,1.5,1.23,1.23,0,0,0,1.3-.1c.1-.1.2-.2.2-.3l1.3-2.6.2-.5Zm3.8-10.4a1.07,1.07,0,0,0-.8-1.3,1,1,0,0,0-1.1.4.84.84,0,0,0-.2.4l-.3,1.5-.8,2-.2.6a1.09,1.09,0,0,0,1.9,1c.1-.1.1-.2.2-.3l.2-.6.8-2,.2-1,.1-.7Zm1.2-11.2a1,1,0,0,0-1.1-1,.76.76,0,0,0-.5.2,1.19,1.19,0,0,0-.5.9v4.2a1.19,1.19,0,0,0,1,1.2,1.25,1.25,0,0,0,1.1-.6c.1-.1.1-.2.1-.4v-3.8l-.1-.7Zm-2.7-10.9a1.14,1.14,0,0,0-1.5-.5,1.12,1.12,0,0,0-.6,1,.6.6,0,0,0,.1.4l.2.6,1.2,3,.1.3a1.12,1.12,0,0,0,2.2-.4v-.1l-.1-.4-1.2-3Zm-5.8-9.5a1.11,1.11,0,0,0-1.5-.2,1.09,1.09,0,0,0-.4.9,1.42,1.42,0,0,0,.2.6c.9,1.1,1.7,2.3,2.5,3.5a1.11,1.11,0,0,0,2-.9c0-.1-.1-.2-.1-.3Zm-7.8-7.9a1,1,0,0,0-1.5.2,1.23,1.23,0,0,0-.2,1,2.19,2.19,0,0,0,.3.5l3.2,2.8a1.06,1.06,0,0,0,1.5-1.5l-.1-.1a22.6,22.6,0,0,0-3.2-2.9Zm-9.3-6.1a1.08,1.08,0,0,0-1.5.5,1.18,1.18,0,0,0-.1.8.94.94,0,0,0,.6.6,27.06,27.06,0,0,1,3.7,2.1,1.23,1.23,0,0,0,1.3-.1,1,1,0,0,0,.1-1.5c-.1-.1-.2-.2-.3-.2a28.84,28.84,0,0,0-3.8-2.2Zm-10.7-3.3a1,1,0,0,0-.7.2,1.1,1.1,0,0,0,.5,2,27,27,0,0,1,4.1.8,1.09,1.09,0,0,0,1.39-.65.43.43,0,0,1,0-.05,1.15,1.15,0,0,0-.4-1.2.7.7,0,0,0-.4-.2,18,18,0,0,0-4.5-.9Zm36.9,136.9a1.11,1.11,0,0,0,.7-2.1h0l-3.6-1.2-.4-.1a1.06,1.06,0,0,0-1.38.65s0,0,0,.05a1.43,1.43,0,0,0,.2,1.1,2.19,2.19,0,0,0,.5.3l.4.1,3.6,1.2Z"/>
  <g>
    <path class="cls-4" d="M80.64,292.29l-26-15.2,27.4,6.7Z"/>
    <g>
      <path class="cls-5" d="M54.64,277.09l31.1,2.9-3.7,3.8Z"/>
      <path class="cls-5" d="M79.14,287l-8.2,8.6-16.3-18.5Z"/>
    </g>
    <path class="cls-6" d="M79.64,314.29l-1.5-5.3-3,3.2Z"/>
    <path class="cls-7" d="M185.84,605.49c-53.6,0-97,2.2-97,5s43.5,5,97,5,97-2.2,97-5-43.5-5-97-5"/>
    <path class="cls-8" d="M243.14,566.49a50.69,50.69,0,0,1-17.3,13.5c-4.1.8-8.6-1.3-11.7-2.4l-39,32.4c-6.9-5.9-11.6-13.2-12.6-21,6.7-9.4,27.1-15.1,36.7-26l.6-19c4-1.6,10-1.4,16.2.8-.3,6.2,10.5,13.3,27.1,21.7"/>
    <path class="cls-9" d="M249,569.19a49.28,49.28,0,0,1-17.3,13.4c-4.1.8-8.6-1.3-11.7-2.4l-39,32.5c-6.9-6-11.6-13.2-12.6-21,6.7-9.4,27.1-15.2,36.7-26l.6-19c4-1.6,10-1.4,16.2.8-.3,6.1,10.5,13.2,27.1,21.7"/>
    <path class="cls-10" d="M162.54,588.89l6,2.6c.4,7.9,7.8,16.9,12.6,21l-5.9-2.6c-3.8-3.1-11.9-11.4-12.7-21"/>
    <g class="cls-1">
      <path class="cls-11" d="M281.54,526l-48.7-24.1-24.3,49.2,48.7,24a23.54,23.54,0,0,0,31.4-10.6l3.5-7.1a23.48,23.48,0,0,0-10.6-31.4"/>
      <path class="cls-12" d="M219.54,528.89l-11,22.2,48.7,24.1a23.69,23.69,0,0,0,29.1-6.8l-66.8-39.5Z"/>
    </g>
    <path class="cls-13" d="M220.14,557.29c-52.9-20-86.3-12.4-131.3-4.4l72.7-147c21,40.6,35.3,71.7,83.3,101.6h0a77.83,77.83,0,0,1-24.7,49.8Z"/>
    <path class="cls-14" d="M220.14,557.29c-52.9-20-86.3-12.4-131.3-4.4l38.7-78.2,107.7,63.6a74.88,74.88,0,0,1-15.1,19Z"/>
    <path class="cls-15" d="M154.54,398.09c-18.2-9-49.9,18.2-70.9,60.7S60.34,543,78.54,552s49.9-18.2,70.9-60.7,23.3-84.2,5.1-93.2"/>
    <path class="cls-5" d="M154,399.09c-17.6-8.7-48.7,18.2-69.5,60.2s-23.2,83-5.6,91.7,48.7-18.2,69.5-60.2,23.2-83,5.6-91.7"/>
    <path class="cls-16" d="M150,407.19c-13.1-6.5-38.7,18.6-57.3,56.1s-22.9,73-9.7,79.5,38.7-18.6,57.3-56.1,22.8-73,9.7-79.5"/>
    <path class="cls-4" d="M134.64,456.89h0c-4.9-2.3-12.1,6.2-18,18.2s-8.3,22.9-3.5,25.3h.1a5.73,5.73,0,0,0,1.4.4l15.3,4.7a210.76,210.76,0,0,0,19.2-39l-13.4-8.9a6.73,6.73,0,0,0-1.1-.7"/>
    <path class="cls-17" d="M134,456.59c-3.7-1.8-11.5,6.4-17.5,18.5s-7.8,23.2-4.1,25.1,11.5-6.4,17.5-18.5,7.8-23.3,4.1-25.1"/>
    <path class="cls-4" d="M592.24,573l.2,8.8-.9.6-1.9.6-2.8.5-3.7.4-4.6.4-5.3.4-6,.3-6.6.3-7.1.3-7.6.2-8.1.2-25.9.3h-27.1l-26.4-.3-8.4-.2-8-.2-7.6-.2-7.2-.3-6.5-.3-6-.3-5.3-.4-4.5-.4-3.7-.4-2.8-.5-1.8-.5-.8-.5-.2-8.8.8.5,1.8.5,2.9.5,3.6.4,4.6.4,5.2.3,6,.4,6.6.3,7.1.3,15.6.4,8.4.2,8.6.1,17.9.2h27.1l17.5-.2,8.3-.1,15.7-.4,7.2-.3,6.5-.3,6-.3,5.3-.4,4.6-.4,3.7-.4,2.9-.5,1.8-.6Z"/>
    <g class="cls-1">
      <path class="cls-18" d="M592.24,573c-3.4,6.4-193.6,5.6-196.6,0-.4-9.2,31.7-15.4,36.8-24.8l12.8-93.2h97l12.8,93.2c5.2,9.4,37.7,15.6,37.2,24.8"/>
      <path class="cls-18" d="M432.24,548.49l.2-.3,12.8-93.2h97l12.8,93.2.2.3Z"/>
    </g>
    <path class="cls-13" d="M781.84,136.79H205.94a17.67,17.67,0,0,0-17.6,17.5v336.5a17.69,17.69,0,0,0,17.6,17.6h575.9a17.69,17.69,0,0,0,17.6-17.6V154.29a17.6,17.6,0,0,0-17.6-17.5"/>
    <g>
      <path class="cls-5" d="M781.84,139.09H205.94a15.19,15.19,0,0,0-15.2,15.2v336.5a15.19,15.19,0,0,0,15.2,15.2h575.9a15.19,15.19,0,0,0,15.2-15.2V154.29a15.19,15.19,0,0,0-15.2-15.2"/>
      <path class="cls-5" d="M646.34,139.09H205.94a15.19,15.19,0,0,0-15.2,15.2v336.5a15.19,15.19,0,0,0,15.2,15.2h182.3l258.1-366.9Z"/>
    </g>
  </g>
  <path class="cls-19" d="M208.84,154.49h570.1V461H208.84Z"/>
  <g class="cls-1">
    <path class="cls-3" d="M210.24,155.89h567.4v303.8H210.24Z"/>
    <path class="cls-17" d="M634.54,155.89l-213.7,303.8H210.24V155.89Z"/>
  </g>
  <path class="cls-20" d="M743.44,606.89l3,1,39.1,33.9a4.43,4.43,0,0,1,1,3.5l-.2-14.5-1.7-2.5-38.9-33.5-2.3-.6-493.8.1-2,.8L202.44,629a4.72,4.72,0,0,0-1.2,3.9v12.6a4.75,4.75,0,0,1,2.1-4.7l45.2-33.6,1.8-.3Z"/>
  <path class="cls-21" d="M206,649.69a4.85,4.85,0,0,1-4.8-4.2v-12.6a4.85,4.85,0,0,0,4.8,4.2h575.6a5,5,0,0,0,4.9-4.4c0,2.3.3,12.3-.2,13.8a4.83,4.83,0,0,1-4.6,3.3Z"/>
  <path class="cls-22" d="M250.34,594.19h493.1a4.53,4.53,0,0,1,3,1l38.2,33.1a4.9,4.9,0,0,1,1.6,5.4,4.83,4.83,0,0,1-4.6,3.3H206a4.83,4.83,0,0,1-4.6-3.4,5,5,0,0,1,1.9-5.5l44.3-33.1a4.78,4.78,0,0,1,2.7-.8"/>
  <g>
    <path class="cls-21" d="M238.84,607.69l.1,5.5h32.4l-.1-5.5Zm-10.7,8.4.1,5.5h34.1l-.1-5.5Z"/>
    <path class="cls-21" d="M271.24,607.69l.1,5.5,4.5-4.2-.1-5.4Zm455.6,8.4.1,5.5h34.2l-.1-5.5Zm9.9,10.3.1,5.4h35.7l-.1-5.4Zm-18.1-18.7.1,5.5h33l-.1-5.5Z"/>
    <path class="cls-21" d="M729.74,619.09l.1,5.4.4.5.9.9.4.5.5.4.4.5,1.3,1.3.4.5.5.4.4.5.5.4.4.5.9.9-.1-5.4-.5-.5-.4-.5-.4-.4-.5-.4-.4-.5-.9-.9-.4-.5-.5-.4-.4-.5-2.2-2.2Zm-18-18.5.1,5.4h28.7l-.1-5.4h-28.7Zm9.8,10.1.1,5.4,5.3,5.5-.1-5.5Zm-15.8-16.3.1,5.4h30.9l-.1-5.4h-30.9Z"/>
    <path class="cls-21" d="M711.74,600.59l.1,5.4Zm2.9,3,.1,5.4,4,4.2-.1-5.5Zm25.8-3,.1,5.4h3.2l-.1-5.4h-3.2Zm-37.1-8.7.1,5.4,1.2,1.2.3.4.9.9-.1-5.4-.3-.3-.3-.4-1.5-1.5Z"/>
    <path class="cls-21" d="M708.64,597.39l.1,5.4,1.2,1.2.3.4,1.6,1.6-.1-5.4-1.6-1.6-.3-.4-.8-.8Zm-40.1-5.5.1,5.4.3.3.2.3.3.3.2.3.3.4.3.3.2.3.3.3-.1-5.4-.3-.3-.2-.4-.3-.3-.2-.3-.6-.6-.2-.3Z"/>
    <path class="cls-21" d="M670.64,594.39l.1,5.4h31.2l-.1-5.4h-31.2Zm5,6.2.1,5.4h32.2l-.1-5.4h-32.2Z"/>
    <path class="cls-21" d="M673,597.39l.1,5.4.3.4.4.4.6.8.4.4.9,1.2-.1-5.4-.9-1.2-.4-.4-.6-.8-.4-.4Zm8.5,10.3.1,5.5h33.2l-.1-5.5h-33.2Z"/>
    <path class="cls-21" d="M678.14,603.59l.1,5.4.8,1,.4.6.5.5,1.2,1.5.5.6-.1-5.5-.5-.5-1.2-1.5-.5-.6-.8-1Zm12.6,15.5.1,5.4.4.5.4.4.4.5.3.5.4.4.4.5.3.4.4.5.4.4.3.5.4.4.4.5.3.4.4.5.4.4.3.5-.1-5.4-.3-.5-.4-.5-.4-.4-.3-.4-.8-1-.3-.4-.4-.5-.4-.4-.3-.5-.4-.4-.4-.5-.4-.4-.3-.5-.4-.4Z"/>
    <path class="cls-21" d="M696.64,626.39l.1,5.4h36.1l-.1-5.4Zm-46.7-10.3.1,5.5h34.8l-.1-5.5h-34.8Zm6.7,10.3.1,5.4h36.4l-.1-5.4Zm-12.3-18.7.1,5.5h33.5l-.1-5.5h-33.5Z"/>
    <path class="cls-21" d="M651.84,619.09l.1,5.4.3.5.3.4.6,1,.3.4.3.5.3.4.3.5.3.4.3.5.3.4.3.5.3.4.3.5.3.4.3.5-.1-5.4-.6-1-.6-.8-.6-1-.3-.4-.3-.5-.3-.4-.3-.5-.3-.4-.3-.5-.3-.4-.3-.5-.3-.4Zm-12.2-18.5.1,5.4h32.4l-.1-5.4h-32.4Zm6.7,10.1.1,5.4.4.7.5.7.4.7.5.6.4.7.5.7.4.7.5.7-.1-5.5-.5-.6-.4-.7-.5-.7-.4-.7-.5-.7-.4-.6-.5-.7Zm-10.8-16.3.1,5.4h31.5l-.1-5.4h-31.5Z"/>
    <path class="cls-21" d="M641.64,603.59l.1,5.4.3.5.4.5.3.6.3.5.4.5.3.5.4.5.3.6-.1-5.5-.3-.5-.4-.5-.3-.5-.4-.5-.3-.6-.3-.5-.4-.5Zm-4.1-6.2.1,5.4.2.4.6.8.2.4.6.8.2.4.3.4-.1-5.4-.3-.4-.2-.4-.6-.8-.2-.4-.6-.8Zm-3.6-5.5.1,5.4.8,1.2.2.4.6.9-.1-5.4-.2-.3-.2-.4-1-1.5Zm-21,27.2.1,5.4,3.6,7.3-.1-5.4Z"/>
    <path class="cls-21" d="M616.54,626.39l.1,5.4h36.8l-.1-5.4Zm-12.9-25.8.1,5.4h32.7l-.1-5.4h-32.7Zm3.6,7.1.1,5.5h33.8l-.1-5.5h-33.8Zm-6.7-13.3.1,5.4h31.7l-.1-5.4h-31.7Z"/>
    <path class="cls-21" d="M605.14,603.59l.1,5.4.3.5.2.5.3.6.3.5.2.5.3.5.2.5.3.6-.1-5.5-.3-.5-.2-.5-.3-.5-.2-.5-.3-.6-.3-.5-.2-.5Zm-5.8-11.7.1,5.4.1.3.2.3.1.3.2.3.1.4.4.6.1.3-.1-5.4-.1-.3-.2-.4-.2-.3-.1-.3-.2-.3-.1-.3-.2-.3Zm2.7,5.5.1,5.4,1.6,3.2-.1-5.4-1.4-2.8Zm-36.4-3,.1,5.4h31.8l-.1-5.4h-31.8Z"/>
    <path class="cls-21" d="M564.74,591.89l.1,5.4.2.3.3.9.1.4.3.9-.1-5.4-.1-.3-.1-.4-.4-1.2-.2-.3Zm1.9,5.5.1,5.4.2.4.2.6.4.8.1.4.2.5.2.4.2.5.3.4.2.5.2.4.1.5.4.8-.1-5.4-.2-.4-.1-.4-.2-.5-.2-.4-.2-.5-.3-.5-.2-.4-.2-.5-.2-.4-.1-.4-.4-.8-.3-.9Z"/>
    <path class="cls-21" d="M531.84,600.59l.1,5.4h33l-.1-5.4h-33Zm1.3,7.1.1,5.5h71l-.1-5.5h-71Z"/>
    <path class="cls-21" d="M571.14,610.69l.1,5.4.2.7.3.7.2.7.2.6.3.7.4,1.4.3.7-.1-5.5-.3-.6-.4-1.4-.3-.7-.2-.7-.2-.6-.2-.7Z"/>
    <path class="cls-21" d="M573,616.09l.1,5.5h35.3l-.1-5.5H573Z"/>
    <path class="cls-21" d="M574,619.09l.1,5.4.1.5.2.4.1.5.2.5.1.4.2.5.1.4.2.5.1.4.2.5.2.4.1.5.2.4.1.5.2.4.1.5-.1-5.4-.1-.5-.2-.5-.1-.4-.2-.4-.1-.5-.2-.5-.1-.4-.2-.5-.2-.4-.1-.5-.2-.4-.1-.5-.2-.4-.1-.5-.2-.4Z"/>
    <path class="cls-21" d="M576.44,626.39l.1,5.4h37.1l-.2-5.4Zm-42.8-15.7.1,5.4.2,1.4.2.7.1.6.4,2.8-.1-5.5-.1-.6-.3-2.1-.2-.7-.1-.6-.1-.7Z"/>
    <path class="cls-21" d="M534.54,616.09l.1,5.5h35.6l-.1-5.5h-35.6Zm-3.7-21.7.1,5.4h31.9l-.1-5.4h-31.9Z"/>
    <path class="cls-21" d="M532.44,603.59l.1,5.4.1.5v.5l.1.6.4,2,.1.6-.1-5.5-.4-2-.1-.6-.2-1Zm-2.1-11.7.1,5.4.1.3v.3l.1.3v.3l.1.4.1.3v.3l.1.3-.1-5.4-.1-.3v-.4l-.2-.6v-.3l-.1-.3v-.3Zm1,5.5.1,5.4v.4l.3,1.2v.4l.2.8v.4l-.1-5.4v-.4l-.2-.8V599l-.2-.8v-.4Zm-35.3-3,.1,5.4h32l-.1-5.4H496Zm.1,6.2.1,5.4h33l-.1-5.4h-33Zm0,7.1.1,5.5h34.3l-.2-5.5h-34.2Zm0,8.4.1,5.5h35.7l-.1-5.5h-35.7Zm-38.3,0,.1,5.5h35.7l-.1-5.5h-35.7Zm1.4-8.4.1,5.5h34.2l-.1-5.5h-34.2Z"/>
    <path class="cls-21" d="M493.54,616.09l.1,5.5v-2.8l-.1-.6v-2.1l-.1-5.4v1.4l.1.6v3.4Zm-33.1-15.5.1,5.4h33l-.1-5.4h-33Z"/>
    <path class="cls-21" d="M493.44,607.69l.1,5.5V609l-.1-5.4v4.1Zm-32-13.3.1,5.4h31.9l-.1-5.4h-31.9Z"/>
    <path class="cls-21" d="M493.44,600.59l.1,5.4v-3.2l-.1-5.4v3.2Z"/>
    <path class="cls-21" d="M493.34,594.39l.1,5.4v-2.5l-.1-5.4v2.5Zm-66.4,0,.1,5.4h31.8l-.1-5.4h-31.8Z"/>
    <path class="cls-21" d="M458.74,594.39l.1,5.4v-.3l.1-.3v-.3l.1-.4v-.3l.1-.3v-.3l.1-.3-.1-5.4-.1.3v.3l-.1.3v.3l-.1.3v.3l-.1.4Zm-34,6.2.1,5.4h32.9l-.1-5.4h-32.9Z"/>
    <path class="cls-21" d="M457.64,600.59l.1,5.4.2-.8v-.4l.2-.8v-.4l.2-.8-.1-5.4-.2.8v.4l-.2.8v.4l-.1.4Zm-35.3,7.1.1,5.5h34.2l-.1-5.5h-34.2Z"/>
    <path class="cls-21" d="M456.54,607.69l.1,5.5v-.6l.4-2,.1-.6.1-.5V609l-.1-5.4v.5l-.2,1-.1.6-.3,1.5Zm-37,8.4.1,5.5h35.6l-.1-5.5h-35.6Z"/>
    <path class="cls-21" d="M455.14,616.09l.1,5.5.4-2.8.1-.6.1-.7.2-.7.1-.7-.1-5.4-.2.7-.1.7-.1.6-.4,2.8Zm-73.9,0,.1,5.5h35.4l-.1-5.5h-35.4Zm4.3-8.4.1,5.5h34l-.1-5.5h-34Z"/>
    <path class="cls-21" d="M416.64,616.09l.1,5.5.2-.7.3-.7.4-1.4.3-.6.6-2.1-.1-5.4-.4,1.4-.2.6-.3.7-.4,1.4-.3.7Zm-27.4-15.5.1,5.4H422l-.1-5.4h-32.7Z"/>
    <path class="cls-21" d="M419.54,607.69l.1,5.5.1-.6.6-1.5.1-.5.2-.6.4-1-.1-5.4-.6,1.5-.1.6-.6,1.5Zm-27.1-13.3.1,5.4h31.6l-.1-5.4h-31.6Z"/>
    <path class="cls-21" d="M421.94,600.59l.1,5.4.1-.4.2-.4.2-.8.2-.4.2-.8.2-.4-.1-5.4-.2.4-.2.8-.2.4-.2.8-.2.4Zm2.1-6.2.1,5.4.3-.9.1-.4.4-1.2-.1-5.4-.6,1.8-.1.4Zm-65.9,0,.1,5.4h31.2l-.1-5.4h-31.2Z"/>
    <path class="cls-21" d="M389.34,594.39l.1,5.4.4-.6.1-.3.2-.4.1-.3.4-.6.1-.3-.1-5.4-.1.3-.2.3-.1.3-.4.6-.1.3-.2.4Zm-35.5,6.2.1,5.4h32.3l-.1-5.4h-32.3Z"/>
    <path class="cls-21" d="M386.14,600.59l.1,5.4.6-1.2.3-.4.8-1.6-.1-5.4-1,2-.3.4-.2.4Zm-37.3,7.1.1,5.5h33.6l-.1-5.5h-33.6Z"/>
    <path class="cls-21" d="M382.44,607.69l.1,5.5.3-.6.3-.5.2-.5.6-1,.2-.6.6-1-.1-5.4-.6,1-.2.5-.3.6-.3.5-.2.5-.3.5Zm-99.4-7.1.1,5.4h31.6l-.1-5.4H283Zm95.1,15.5.1,5.5.3-.7.4-.7.3-.7.4-.7.3-.6.4-.7.3-.7.4-.7-.1-5.4-.4.7-.3.7-.4.6-.3.7-.4.7-.3.7-.4.7Zm-122.5-21.7.1,5.4h29.9l-.1-5.4h-29.9Zm-7.8,6.2.1,5.4H279l-.1-5.4Zm14.4,15.5.1,5.5,5.8-5.5-.1-5.4Zm13.2-8.4.1,5.5h32.9l-.1-5.5h-32.9Z"/>
    <path class="cls-21" d="M300.94,616.09l.1,5.5,2.4-2.8.6-.6,1.8-2.1-.1-5.4-1.2,1.4-.6.6-2.4,2.8Zm7.4-8.4.1,5.5.5-.6.4-.5.5-.5.4-.5.5-.5.5-.6.4-.5.5-.5-.1-5.4-.5.5-.4.5-.5.5-.5.6-.4.5-.5.5-.4.5Zm3.8,0,.1,5.5h33.3l-.1-5.5h-33.3Zm6.3-7.1.1,5.4h32l-.1-5.4h-32Z"/>
    <path class="cls-21" d="M345.44,607.69l.1,5.5.3-.6.8-1,.3-.5.4-.5.4-.6.3-.5.4-.5-.1-5.4-.4.5-.3.5-.4.5-.4.6-.3.5-.8,1Zm-21.5-13.3.1,5.4h30.8l-.1-5.4h-30.8Z"/>
    <path class="cls-21" d="M350.44,600.59l.1,5.4.2-.4,1.5-2,.2-.4.3-.4-.1-5.4-.3.4-.2.4-1.5,2Zm4.3-6.2.1,5.4.4-.6.3-.3.2-.4.6-.9.3-.3-.1-5.4-.3.3-.8,1.2-.3.3-.2.4Zm-65,0,.1,5.4h30.4l-.1-5.4h-30.4Z"/>
    <path class="cls-21" d="M320.14,594.39l.1,5.4.6-.6.2-.3.3-.4.6-.6.2-.3.3-.3-.1-5.4-.3.3-.2.3-.9.9-.2.3-.3.4Zm19.4,21.7.1,5.5,1-1.4.4-.7.5-.7.5-.6.4-.7,1-1.4-.1-5.4-1,1.4-.4.6-1.5,2.1-.4.7Z"/>
    <path class="cls-21" d="M314.64,600.59l.1,5.4.4-.4.3-.4.4-.4.3-.4.8-.8.3-.4.4-.4-.1-5.4-.4.4-.3.4-.8.8-.3.4-.4.4-.3.4Zm-10,15.5.1,5.5h34.9l-.1-5.5h-34.9Zm38.3,0,.1,5.5h35.2l-.1-5.5h-35.2Zm-76.5,0,.1,5.5H301l-.1-5.5h-34.5Z"/>
    <path class="cls-21" d="M332.44,626.39l.1,5.4,5-7.3-.1-5.4Zm-53.5-25.8.1,5.4,3.4-3.2-.1-5.4Zm6.6-6.2.1,5.4.4-.3,1.3-1.3.4-.3.6-.6-.1-5.4-.6.6-.4.3-.3.3-.4.3-.3.3-.3.4Zm-34.2,32,.1,5.4,7.8-7.3-.1-5.4Z"/>
    <path class="cls-21" d="M291.84,626.39l.2,5.4.3-.5.9-.9.3-.4.4-.5.5-.4.3-.5.9-.9.3-.4.4-.5.5-.4.3-.5.4-.5.4-.4.4-.5-.1-5.4-.4.5-.4.4-.4.5-.4.4-.4.5-.4.4-.4.5-.4.4-.4.5-.4.4-.3.5-.4.5-.5.4-.3.4-.4.5Zm44,0,.1,5.4h237.8l-.1-5.4H335.84Z"/>
    <path class="cls-21" d="M295.64,626.39l.1,5.4h36.8l-.1-5.4Zm-40.2,0,.1,5.4H292l-.2-5.4Zm-40.2,0,.1,5.4h36.1l-.1-5.4Z"/>
  </g>
  <path class="cls-22" d="M251.34,626.39l7.8-7.3h-34.7l-9.2,7.3Zm19.9-18.7,4.5-4.2H244l-5.3,4.2Zm27,11.4h-35l-7.8,7.2h36.4Zm-42.6-24.7h29.9l2.7-2.5h-29.4Zm50.1,16.3h-33.5l-5.8,5.4h34.5Zm-30.3-3h32.8l3.7-4.2h-32.1Zm7.7-7.1h31.6l2.8-3.2h-30.9Zm6.6-6.2h30.4l2.2-2.5h-29.9Zm36.4-2.5-2.2,2.5h30.9l1.8-2.6-30.5.1Zm26.5,5.5h-31.4l-2.8,3.2h32Zm-4.3,6.2h-32.6l-3.7,4.2h33.3l3-4.2Zm-43.7,12.5h34.9l3.8-5.4h-33.9Zm32.8,3H302l-6.4,7.2h36.8Zm-58.6-18.5,3.5-3.2h-30.4l-4.1,3.2Zm64,15.5H378l2.8-5.4h-34.2Zm5.9-8.4h33.7l2.2-4.2h-32.8l-3.1,4.2Zm5-7.1h32.4l1.7-3.2H356l-2.3,3.2Zm4.3-6.2h31.2l1.3-2.5h-30.8Zm35.7-2.5-1.3,2.5H424l.9-2.5Zm29.3,5.5h-32.1l-1.7,3.2h32.7a30.05,30.05,0,0,1,1.1-3.2Zm-2.1,6.2h-33.2l-2.2,4.2h33.9l1.5-4.2Zm-2.5,7.1h-34.5l-2.8,5.4h35.4Zm1.1,5.4h35.6l.9-5.4h-34.6Zm2.8-8.4h34.1l.7-4.2h-33.4l-1.4,4.2Zm2.4-7.1h32.9l.5-3.2h-32.3Zm2.1-6.2h31.8l.4-2.5h-31.4Zm35-2.5-.4,2.5h32v-2.5Zm31.5,5.5h-32.5l-.5,3.2h33.1Zm0,6.2h-33.5l-.7,4.2h34.2Zm0,7.1h-34.7l-.9,5.4h35.7a32.47,32.47,0,0,0-.1-5.4Zm2.8,5.4h35.7l-.9-5.4h-34.8a48.64,48.64,0,0,1,0,5.4Zm-.1-8.4h34.3l-.7-4.2H496l.1,4.2Zm0-7.1h33.1l-.6-3.2H496a17.09,17.09,0,0,1,0,3.2Zm0-6.2h32a21.66,21.66,0,0,1-.4-2.5H496Zm34.3-2.5a21.66,21.66,0,0,1,.4,2.5h32l-.9-2.5Zm33.4,5.5h-32.5l.6,3.2h33a30.05,30.05,0,0,0-1.1-3.2Zm4.5,13.3h-34.7l.9,5.4H570Zm5.7,8.4,2.4,7.2h37l-3.6-7.2Zm31.6-8.4H571l1.9,5.4h35.4Zm-1.4-3-1.4-2.9v-1l-3.1-6.2h-32.4c.3.8,1.9,4.2,2.7,6.2H533l.7,4.2,70.4-.3Zm-38.6-13.3h31.9l-1.3-2.5h-31.4Zm33.7-2.5,1.3,2.5h31.7l-1.7-2.5Zm34.9,5.5H602l1.6,3.2h32.7Zm4.1,6.2h-33.1l2.1,4.2H641Zm10.2,15.5h-35.6l3.6,7.2h36.8Zm-13-24.7h31.5l-2-2.5h-31.1Zm33.9,3h-31.9l2.1,3.2h32.4Zm5.1,6.2h-32.9l2.7,4.2h33.5l-3.3-4.2Zm5.8,7.1h-34l3.6,5.4h34.8Zm6.8,8.4h-35.2l4.8,7.2H693l-6-7.2Zm3.7,0,5.9,7.2h36.1l-7-7.2Zm-9.3-11.4h33.2l-4-4.2H678Zm-5.8-7.1h32.1l-3.1-3.2h-31.7Zm26.1-6.2-2.4-2.6h-30.8l2,2.5,31.2.1Zm1.5-2.5,2.4,2.5h30.9l-2.8-2.5Zm36.7,5.5h-31.4l3.1,3.2h31.9Zm-25.4,6.2,4,4.2h32.9l-4.7-4.2Zm6.9,7.1,5.3,5.4h34.2l-6.1-5.4Zm8.2,8.4,7,7.2h35.7l-8.1-7.2Zm-388.9,0-5.1,7.2h237.8l-2.4-7.2Zm-78.6-3,5.8-5.4h-33.1l-6.9,5.4Z"/>
  <path class="cls-23" d="M859.94,580.79h0a56.42,56.42,0,0,1,56.3,56.3v.1a12.5,12.5,0,0,1-12.5,12.5h-87.5a12.66,12.66,0,0,1-12.6-12.5v-.1a56.42,56.42,0,0,1,56.3-56.3"/>
  <path class="cls-24" d="M862.14,580.89a56.5,56.5,0,0,1,54.1,56.2v.1a12.5,12.5,0,0,1-12.5,12.5h-83.1a12.5,12.5,0,0,1-12.5-12.5v-.1a56.21,56.21,0,0,1,54-56.2"/>
  <path class="cls-23" d="M859.94,580.79h0a56.41,56.41,0,0,1,14.2,1.8,54.16,54.16,0,0,1,31.2,49v.1a12,12,0,0,1-12,12h-84.1a4.74,4.74,0,0,1-5.7-6.5v-.1a56.64,56.64,0,0,1,56.4-56.3"/>
  <path class="cls-25" d="M878.84,585.19a54,54,0,0,1,26.5,46.4v.1a12,12,0,0,1-12,12h-84.1a12.6,12.6,0,0,1-4.3-.8,11.82,11.82,0,0,1-1.4-5.5c11.3-9.9,30.6-12.9,48.4-9.4,37.3,7.4,50.3-21.5,26.9-42.8"/>
  <path id="B" class="cls-26" d="M862.24,580.89a59.73,59.73,0,0,1,11.9,1.8,54.16,54.16,0,0,1,31.2,49v.1a12,12,0,0,1-12,12h-83.4a12.6,12.6,0,0,1-1.9-6.5v-.1a56.41,56.41,0,0,1,54.2-56.3"/>
  <path id="B-2" data-name="B" class="cls-27" d="M862.24,580.89a59.73,59.73,0,0,1,11.9,1.8,54.16,54.16,0,0,1,31.2,49v.1a12,12,0,0,1-12,12h-83.4a12.6,12.6,0,0,1-1.9-6.5v-.1a56.41,56.41,0,0,1,54.2-56.3"/>
  <path class="cls-28" d="M878.84,585.19a54,54,0,0,1,26.5,46.4v.1a12,12,0,0,1-12,12h-83.4a12.6,12.6,0,0,1-1.9-6.5v-.1c0-1,0-2.1.1-3.1,11.5-7.2,28.3-9.1,43.8-6,37.3,7.4,50.3-21.5,26.9-42.8"/>
  <path class="cls-29" d="M860.54,580.79v9.1a3.61,3.61,0,1,1-1.3,0v-9.1Z"/>
  <g>
    <path class="cls-30" d="M224.44,165.39h539c3.4,0,6.2,2.4,6.2,5.3v9.9H218.24v-9.9c0-2.9,2.8-5.3,6.2-5.3"/>
    <path class="cls-30" d="M218.24,180.59h551.3v265.3c0,2.9-2.8,5.3-6.2,5.3h-539c-3.4,0-6.2-2.4-6.2-5.3l.1-265.3Z"/>
  </g>
  <path class="cls-31" d="M218.24,183.29h551.3v30.4H218.24Z"/>
  <path class="cls-32" d="M250.34,219.69h373.5v218.7H250.34Zm382.5,0h104.7v218.7H632.84Z"/>
  <g class="cls-1">
    <path class="cls-33" d="M670.54,260.59h28.6v7.2h-28.6Z"/>
    <path class="cls-34" d="M670.54,271.49H727v3.8h-56.5Z"/>
    <path class="cls-33" d="M670.54,291.89H712v7.2h-41.5Z"/>
    <path class="cls-34" d="M670.54,302.79H727v3.8h-56.5Z"/>
    <path class="cls-33" d="M640.94,231.39H684v7.2h-43.1Zm67.1,0h19v7.2H708Zm-350.9,104.9h56.8v8.9h-56.8Z"/>
    <path class="cls-34" d="M357.14,350.09h91.6v4.7h-91.6Zm0,23.5h245.5v4.7H357.14Zm0-11.9h245.5v4.7H357.14Zm0,54.6h245.5V421H357.14Z"/>
    <path class="cls-33" d="M357.14,392.19h81.4v8.9h-81.4Z"/>
    <path class="cls-34" d="M357.14,406h62.8v4.7h-62.8Z"/>
    <path class="cls-35" d="M250.34,189.79h373.4v17.4H250.34Z"/>
  </g>
  <g>
    <path class="cls-32" d="M678.84,192.49H691v12.2h-12.2Z"/>
    <path class="cls-13" d="M706.64,204.69h0a6.08,6.08,0,0,1-6.1-6v-.08h0a6.06,6.06,0,0,1,6-6.1h.08a6,6,0,0,1,6.1,6v.08h0a6,6,0,0,1-6.1,6.1"/>
  </g>
  <path class="cls-12" d="M712.44,200.89a2.9,2.9,0,1,1-2.9,2.9h0a3,3,0,0,1,2.9-2.9h0"/>
  <path class="cls-13" d="M662.44,192.49l7.4,12.2h-14.9l3.8-6.1Z"/>
  <g class="cls-1">
    <path class="cls-12" d="M667.24,200.89a2.85,2.85,0,1,1-2.8,2.9v-.1a2.8,2.8,0,0,1,2.8-2.8"/>
    <path class="cls-36" d="M342.34,231a1.32,1.32,0,0,0,1.3-1.3,1,1,0,0,0-.4-.9,1.09,1.09,0,0,0-.9-.4H337a1.3,1.3,0,0,0,0,2.6Zm13.1,0a1.32,1.32,0,0,0,1.3-1.3,1.37,1.37,0,0,0-1.3-1.3h-5.3a1.3,1.3,0,0,0,0,2.6Zm13.1,0a1.32,1.32,0,0,0,1.3-1.3,1,1,0,0,0-.4-.9,1.09,1.09,0,0,0-.9-.4h-5.3a1.3,1.3,0,0,0,0,2.6Zm12.6.7a1.38,1.38,0,0,0,1.7-.8,1.44,1.44,0,0,0-.4-1.5.52.52,0,0,0-.4-.2h-.1a13.09,13.09,0,0,0-4.8-.8h-.7a1.32,1.32,0,0,0-1.3,1.3,1.37,1.37,0,0,0,1.3,1.3h.7a10.88,10.88,0,0,1,4,.7Zm7.4,8.6a1.06,1.06,0,0,0,.9.9,1.28,1.28,0,0,0,1.6-.9.85.85,0,0,0,0-.7,14.75,14.75,0,0,0-2.3-5.3,1.3,1.3,0,1,0-2.2,1.4l.1.1.1.2a12.34,12.34,0,0,1,1.8,4.3Zm.3,12.8a1.32,1.32,0,0,0,1.3,1.3,1,1,0,0,0,.9-.4,1.8,1.8,0,0,0,.4-.9v-5.3a1.32,1.32,0,0,0-1.3-1.3,1,1,0,0,0-.9.4,1.8,1.8,0,0,0-.4.9Zm0,13.1a1.3,1.3,0,1,0,2.6,0h0v-5.3a1.3,1.3,0,0,0-2.6,0Zm0,13.2a1.32,1.32,0,0,0,1.3,1.3,1,1,0,0,0,.9-.4,1.8,1.8,0,0,0,.4-.9v-5.3a1.32,1.32,0,0,0-1.3-1.3,1,1,0,0,0-.9.4,1.8,1.8,0,0,0-.4.9Zm0,13.1a1.32,1.32,0,0,0,1.3,1.3,1,1,0,0,0,.9-.4,1.09,1.09,0,0,0,.4-.9v-5.3a1.3,1.3,0,1,0-2.6,0Zm-3.2,11.3a1.39,1.39,0,0,0,0,1.9,1.36,1.36,0,0,0,1.6.2c.1-.1.2-.1.3-.2a13.81,13.81,0,0,0,3-4.9,1.38,1.38,0,0,0-.1-1.1,1.3,1.3,0,0,0-1.8-.4,1.79,1.79,0,0,0-.5.7,13.17,13.17,0,0,1-2.5,3.8Zm-11,3.7a1.32,1.32,0,0,0-1.3,1.3,1,1,0,0,0,.4.9,1.8,1.8,0,0,0,.9.4,25.4,25.4,0,0,0,5.5-.3,1.33,1.33,0,1,0-.6-2.6h0a20.2,20.2,0,0,1-4.9.3Zm-13.2,0a1.32,1.32,0,0,0-1.3,1.3,1,1,0,0,0,.4.9,1.8,1.8,0,0,0,.9.4h5.3a1.32,1.32,0,0,0,1.3-1.3,1,1,0,0,0-.4-.9,1.09,1.09,0,0,0-.9-.4Zm-13.1,0a1.32,1.32,0,0,0-1.3,1.3,1,1,0,0,0,.4.9,1.8,1.8,0,0,0,.9.4h5.3a1.32,1.32,0,0,0,1.3-1.3,1.37,1.37,0,0,0-1.3-1.3Zm-13.1,0a1.3,1.3,0,0,0,0,2.6h5.3a1.32,1.32,0,0,0,1.3-1.3,1,1,0,0,0-.4-.9,1.09,1.09,0,0,0-.9-.4Zm-13-.1a1.31,1.31,0,0,0-.7,2.5c.1,0,.2.1.3.1a32.47,32.47,0,0,0,5.4.1,1.32,1.32,0,0,0,1.3-1.3,1,1,0,0,0-.4-.9,1.09,1.09,0,0,0-.9-.4,42.14,42.14,0,0,1-5-.1Zm-9-6.9a1.28,1.28,0,0,0-1.7-.7,1.3,1.3,0,0,0-.8,1.2,1.27,1.27,0,0,0,.1.6,14.27,14.27,0,0,0,3.3,4.7,1.35,1.35,0,0,0,1.8-2h0l-1.8,1.9-3.3-4.7,5.1,2.7a10.44,10.44,0,0,1-2.7-3.7Zm-.9-12.4a1.32,1.32,0,0,0-1.3-1.3,1,1,0,0,0-.9.4,1.09,1.09,0,0,0-.4.9v5.2a1.32,1.32,0,0,0,1.3,1.3,1,1,0,0,0,.9-.4,1.8,1.8,0,0,0,.4-.9Zm0-13.1a1.32,1.32,0,0,0-1.3-1.3,1,1,0,0,0-.9.4,1.09,1.09,0,0,0-.4.9v5.3a1.3,1.3,0,1,0,2.6,0h0Zm0-13.2a1.32,1.32,0,0,0-1.3-1.3,1,1,0,0,0-.9.4,1.09,1.09,0,0,0-.4.9v5.3a1.32,1.32,0,0,0,1.3,1.3,1,1,0,0,0,.9-.4,1.8,1.8,0,0,0,.4-.9Zm0-13.1a1.32,1.32,0,0,0-1.3-1.3,1,1,0,0,0-.9.4,1.09,1.09,0,0,0-.4.9V254a1.3,1.3,0,1,0,2.6,0h0Zm1.7-12.1a1.18,1.18,0,0,0,.1-1,1.28,1.28,0,0,0-1.6-.9,1.56,1.56,0,0,0-.8.6,15.17,15.17,0,0,0-1.9,5.4,1.34,1.34,0,0,0,1.1,1.5,1.3,1.3,0,0,0,1.3-.5,1.42,1.42,0,0,0,.2-.6,9.73,9.73,0,0,1,1.6-4.5Zm9.9-8.3h-.2a13.76,13.76,0,0,0-5.6,1.2,1.23,1.23,0,0,0-.6,1.7,1.48,1.48,0,0,0,1.2.8,1.27,1.27,0,0,0,.6-.1,11.86,11.86,0,0,1,4.6-1h5.4a1.32,1.32,0,0,0,1.3-1.3,1.37,1.37,0,0,0-1.3-1.3Zm124.3,2.7a1.32,1.32,0,0,0,1.3-1.3,1.37,1.37,0,0,0-1.3-1.3h-5.3a1.3,1.3,0,0,0,0,2.6Zm13.1,0a1.32,1.32,0,0,0,1.3-1.3,1,1,0,0,0-.4-.9,1.09,1.09,0,0,0-.9-.4H456a1.3,1.3,0,0,0,0,2.6Zm13.2,0a1.32,1.32,0,0,0,1.3-1.3,1,1,0,0,0-.4-.9,1.09,1.09,0,0,0-.9-.4h-5.3a1.3,1.3,0,0,0,0,2.6Zm12.6.7a1.38,1.38,0,0,0,1.7-.8,1.24,1.24,0,0,0-.4-1.4.52.52,0,0,0-.4-.2h-.1a13.09,13.09,0,0,0-4.8-.8h-.7a1.3,1.3,0,1,0,0,2.6h.7a9.25,9.25,0,0,1,4,.6Zm7.4,8.6a1.3,1.3,0,0,0,1.6,1,1.24,1.24,0,0,0,1-1.6,14.75,14.75,0,0,0-2.3-5.3,1.29,1.29,0,0,0-2.1,1.5c0,.1.1.1.1.2a12.81,12.81,0,0,1,1.7,4.2Zm.2,12.8a1.32,1.32,0,0,0,1.3,1.3,1,1,0,0,0,.9-.4,1.09,1.09,0,0,0,.4-.9v-5.3a1.3,1.3,0,1,0-2.6,0Zm0,13.1a1.32,1.32,0,0,0,1.3,1.3,1.37,1.37,0,0,0,1.3-1.3v-5.3a1.32,1.32,0,0,0-1.3-1.3,1.28,1.28,0,0,0-1,.4,1.09,1.09,0,0,0-.4.9Zm0,13.2a1.32,1.32,0,0,0,1.3,1.3,1,1,0,0,0,.9-.4,1.09,1.09,0,0,0,.4-.9v-5.3a1.3,1.3,0,0,0-2.6,0Zm0,13.1a1.32,1.32,0,0,0,1.3,1.3,1,1,0,0,0,.9-.4,1.09,1.09,0,0,0,.4-.9v-5.3a1.3,1.3,0,1,0-2.6,0Zm-3.1,11.3a1.39,1.39,0,0,0,0,1.9,1.36,1.36,0,0,0,1.6.2c.1-.1.2-.1.3-.2a13.81,13.81,0,0,0,3-4.9,1.3,1.3,0,1,0-2.4-1c0,.1,0,.1-.1.2a12.81,12.81,0,0,1-2.4,3.8Zm-11.1,3.7a1.32,1.32,0,0,0-1.3,1.3,1,1,0,0,0,.4.9,1.8,1.8,0,0,0,.9.4,25.4,25.4,0,0,0,5.5-.3,1.33,1.33,0,0,0-.6-2.6,20.1,20.1,0,0,1-4.9.3Zm-13.1,0a1.3,1.3,0,0,0,0,2.6h5.2a1.32,1.32,0,0,0,1.3-1.3,1.37,1.37,0,0,0-1.3-1.3Zm-13.1,0a1.32,1.32,0,0,0-1.3,1.3,1,1,0,0,0,.4.9,1.8,1.8,0,0,0,.9.4h5.3a1.32,1.32,0,0,0,1.3-1.3,1,1,0,0,0-.4-.9,1.09,1.09,0,0,0-.9-.4Zm-13.2,0a1.32,1.32,0,0,0-1.3,1.3,1,1,0,0,0,.4.9,1.8,1.8,0,0,0,.9.4h5.3a1.32,1.32,0,0,0,1.3-1.3,1.37,1.37,0,0,0-1.3-1.3Zm-12.9-.1a1.31,1.31,0,0,0-.7,2.5c.1,0,.2.1.3.1a32.47,32.47,0,0,0,5.4.1,1.32,1.32,0,0,0,1.3-1.3,1,1,0,0,0-.4-.9,1.09,1.09,0,0,0-.9-.4,42.14,42.14,0,0,1-5-.1Zm-9-6.9a1.28,1.28,0,0,0-1.7-.7,1.3,1.3,0,0,0-.8,1.2,1.27,1.27,0,0,0,.1.6,14.27,14.27,0,0,0,3.3,4.7,1.35,1.35,0,0,0,1.8-2h0l-1.8,1.9-3.3-4.7,5.1,2.7a8.5,8.5,0,0,1-2.7-3.7Zm-1-12.4a1.32,1.32,0,0,0-1.3-1.3,1,1,0,0,0-.9.4,1.8,1.8,0,0,0-.4.9v5.2a1.32,1.32,0,0,0,1.3,1.3,1,1,0,0,0,.9-.4,1.09,1.09,0,0,0,.4-.9Zm0-13.1a1.32,1.32,0,0,0-1.3-1.3,1,1,0,0,0-.9.4,1.8,1.8,0,0,0-.4.9v5.3a1.32,1.32,0,0,0,1.3,1.3,1.37,1.37,0,0,0,1.3-1.3Zm0-13.2a1.32,1.32,0,0,0-1.3-1.3,1,1,0,0,0-.9.4,1.8,1.8,0,0,0-.4.9v5.3a1.32,1.32,0,0,0,1.3,1.3,1,1,0,0,0,.9-.4,1.09,1.09,0,0,0,.4-.9Zm0-13.1a1.32,1.32,0,0,0-1.3-1.3,1,1,0,0,0-.9.4,1.8,1.8,0,0,0-.4.9V254a1.32,1.32,0,0,0,1.3,1.3,1.37,1.37,0,0,0,1.3-1.3Zm1.7-12.1a1.18,1.18,0,0,0,.1-1,1.28,1.28,0,0,0-1.6-.9,1.56,1.56,0,0,0-.8.6,15.17,15.17,0,0,0-1.9,5.4,1.34,1.34,0,0,0,1.1,1.5,1.3,1.3,0,0,0,1.3-.5,1.42,1.42,0,0,0,.2-.6,11,11,0,0,1,1.6-4.5Zm9.9-8.3h-.2a13.76,13.76,0,0,0-5.6,1.2,1.23,1.23,0,0,0-.6,1.7,1.48,1.48,0,0,0,1.2.8,1.27,1.27,0,0,0,.6-.1,11.86,11.86,0,0,1,4.6-1h5.4a1.32,1.32,0,0,0,1.3-1.3,1,1,0,0,0-.4-.9,1.09,1.09,0,0,0-.9-.4Zm124.4,79.2a1.32,1.32,0,0,1,1.3,1.3,1,1,0,0,1-.4.9,1.09,1.09,0,0,1-.9.4h-5.3a1.3,1.3,0,1,1,0-2.6Zm13.1,0a1.32,1.32,0,0,1,1.3,1.3,1,1,0,0,1-.4.9,1.09,1.09,0,0,1-.9.4H562a1.3,1.3,0,0,1,0-2.6Zm13.1,0a1.32,1.32,0,0,1,1.3,1.3,1,1,0,0,1-.4.9,1.09,1.09,0,0,1-.9.4h-5.3a1.3,1.3,0,0,1,0-2.6Zm12.6-.7a1.3,1.3,0,0,1,1.7.8,1.44,1.44,0,0,1-.4,1.5.52.52,0,0,1-.4.2h-.1a13.09,13.09,0,0,1-4.8.8h-.7a1.3,1.3,0,1,1,0-2.6h.7a10.88,10.88,0,0,0,4-.7Zm7.4-8.6a1.06,1.06,0,0,1,.9-.9,1.28,1.28,0,0,1,1.6.9.85.85,0,0,1,0,.7,14.75,14.75,0,0,1-2.3,5.3,1.3,1.3,0,0,1-2.2-1.4l.1-.1.1-.2a12.34,12.34,0,0,0,1.8-4.3Zm.3-12.8a1.32,1.32,0,0,1,1.3-1.3,1,1,0,0,1,.9.4,1.8,1.8,0,0,1,.4.9v5.3A1.32,1.32,0,0,1,602,292a1,1,0,0,1-.9-.4,1.09,1.09,0,0,1-.4-.9v-5.3Zm0-13.1a1.3,1.3,0,0,1,2.6,0v5.3a1.32,1.32,0,0,1-1.3,1.3,1,1,0,0,1-.9-.4,1.09,1.09,0,0,1-.4-.9Zm0-13.2a1.32,1.32,0,0,1,1.3-1.3,1,1,0,0,1,.9.4,1.8,1.8,0,0,1,.4.9v5.3a1.32,1.32,0,0,1-1.3,1.3,1,1,0,0,1-.9-.4,1.09,1.09,0,0,1-.4-.9Zm0-13.1a1.3,1.3,0,0,1,2.6,0v5.3a1.32,1.32,0,0,1-1.3,1.3,1.37,1.37,0,0,1-1.3-1.3Zm-3.2-11.4a1.39,1.39,0,0,1,0-1.9,1.36,1.36,0,0,1,1.6-.2c.1.1.2.1.3.2a15.41,15.41,0,0,1,3,4.9,1.38,1.38,0,0,1-.1,1.1,1.3,1.3,0,0,1-1.8.4,1.79,1.79,0,0,1-.5-.7,16.56,16.56,0,0,0-2.5-3.8Zm-11-3.6a1.3,1.3,0,1,1,0-2.6h0a25.4,25.4,0,0,1,5.5.3,1.19,1.19,0,0,1,1,1.2,1.4,1.4,0,0,1-1.2,1.4h-.4a20.2,20.2,0,0,0-4.9-.3Zm-13.2,0a1.32,1.32,0,0,1-1.3-1.3,1,1,0,0,1,.4-.9,1.8,1.8,0,0,1,.9-.4h5.3a1.32,1.32,0,0,1,1.3,1.3,1,1,0,0,1-.4.9,1.09,1.09,0,0,1-.9.4Zm-13.1,0a1.3,1.3,0,1,1,0-2.6h5.3a1.32,1.32,0,0,1,1.3,1.3,1,1,0,0,1-.4.9,1.09,1.09,0,0,1-.9.4Zm-13.1,0a1.32,1.32,0,0,1-1.3-1.3,1,1,0,0,1,.4-.9,1.8,1.8,0,0,1,.9-.4h5.3a1.32,1.32,0,0,1,1.3,1.3,1,1,0,0,1-.4.9,1.09,1.09,0,0,1-.9.4Zm-13,.1a1.31,1.31,0,0,1-.7-2.5c.1,0,.2-.1.3-.1a32.47,32.47,0,0,1,5.4-.1,1.32,1.32,0,0,1,1.3,1.3,1.37,1.37,0,0,1-1.3,1.3,28,28,0,0,0-5,.1Zm-9,6.8a1.28,1.28,0,0,1-1.7.7,1.31,1.31,0,0,1-.8-1.2.75.75,0,0,1,.1-.5,14.27,14.27,0,0,1,3.3-4.7,1.35,1.35,0,1,1,1.8,2h0l-1.8-1.9-3.3,4.7,5.1-2.7A11,11,0,0,0,525.14,237.89Zm-.9,12.5a1.32,1.32,0,0,1-1.3,1.3,1,1,0,0,1-.9-.4,1.09,1.09,0,0,1-.4-.9v-5.2a1.3,1.3,0,1,1,2.6,0Zm0,13.1a1.32,1.32,0,0,1-1.3,1.3,1,1,0,0,1-.9-.4,1.09,1.09,0,0,1-.4-.9v-5.3a1.3,1.3,0,1,1,2.6,0Zm0,13.1a1.32,1.32,0,0,1-1.3,1.3,1,1,0,0,1-.9-.4,1.09,1.09,0,0,1-.4-.9v-5.2a1.3,1.3,0,1,1,2.6,0Zm0,13.2a1.32,1.32,0,0,1-1.3,1.3,1,1,0,0,1-.9-.4,1.09,1.09,0,0,1-.4-.9v-5.3a1.3,1.3,0,1,1,2.6,0Zm1.7,12.1a1.18,1.18,0,0,1,.1,1,1.28,1.28,0,0,1-1.6.9,1.56,1.56,0,0,1-.8-.6,15.17,15.17,0,0,1-1.9-5.4,1.34,1.34,0,0,1,1.1-1.5,1.28,1.28,0,0,1,1.3.5,1.42,1.42,0,0,1,.2.6,10.6,10.6,0,0,0,1.6,4.5Zm9.9,8.3h-.2A13.76,13.76,0,0,1,530,309a1.23,1.23,0,0,1-.6-1.7,1.48,1.48,0,0,1,1.2-.8,1.27,1.27,0,0,1,.6.1,11.86,11.86,0,0,0,4.6,1h5.4a1.32,1.32,0,0,1,1.3,1.3,1.37,1.37,0,0,1-1.3,1.3Z"/>
    <g>
      <path id="C" class="cls-37" d="M646.84,349.19h27.6a6,6,0,0,1,6,6v16.7a6,6,0,0,1-6,6h-27.6a6,6,0,0,1-6-6v-16.7a6.08,6.08,0,0,1,6-6"/>
      <path class="cls-38" d="M693.74,349.19h27.6a6,6,0,0,1,6,6v16.7a6,6,0,0,1-6,6h-27.6a6,6,0,0,1-6-6v-16.7a6,6,0,0,1,6-6"/>
      <path id="C-2" data-name="C" class="cls-37" d="M646.84,384.79h27.6a6,6,0,0,1,6,6v16.7a6,6,0,0,1-6,6h-27.6a6,6,0,0,1-6-6v-16.7a6.08,6.08,0,0,1,6-6"/>
      <path class="cls-38" d="M693.74,384.79h27.6a6,6,0,0,1,6,6v16.7a6,6,0,0,1-6,6h-27.6a6,6,0,0,1-6-6v-16.7a6,6,0,0,1,6-6"/>
      <path class="cls-11" d="M661.54,275.69v-15.5a2.58,2.58,0,0,0-2.6-2.6h-15.5a2.58,2.58,0,0,0-2.6,2.6v15.5a2.58,2.58,0,0,0,2.6,2.6h15.5a2.58,2.58,0,0,0,2.6-2.6m0,31.3v-15.6a2.58,2.58,0,0,0-2.6-2.6h-15.5a2.58,2.58,0,0,0-2.6,2.6v15.5a2.58,2.58,0,0,0,2.6,2.6h15.5a2.5,2.5,0,0,0,2.6-2.5"/>
      <path id="D" class="cls-37" d="M343.84,363V340a3.8,3.8,0,0,0-3.8-3.8H317a3.8,3.8,0,0,0-3.8,3.8h0v23a3.8,3.8,0,0,0,3.8,3.8h23a3.8,3.8,0,0,0,3.8-3.8h0"/>
      <path id="D-2" data-name="D" class="cls-37" d="M343.84,418.89v-23a3.8,3.8,0,0,0-3.8-3.8H317a3.8,3.8,0,0,0-3.8,3.8h0v23a3.8,3.8,0,0,0,3.8,3.8h23a3.8,3.8,0,0,0,3.8-3.8h0"/>
    </g>
  </g>
  <g class="cls-1">
    <path class="cls-39" d="M600.34,187.39h-60.7a14.77,14.77,0,0,0-14.8,14.74v60.76a14.9,14.9,0,0,0,14.8,14.8h60.7A14.77,14.77,0,0,0,615.14,263V202.19a14.9,14.9,0,0,0-14.8-14.8m-231.6,74.3h-53.6a13,13,0,0,0-13,13v53.6a13,13,0,0,0,13,13h53.6a13,13,0,0,0,13-13v-53.6a13,13,0,0,0-13-13"/>
    <path class="cls-40" d="M593.54,178h-61.8a15,15,0,0,0-15,15v61.84a15,15,0,0,0,15,15h61.84a15,15,0,0,0,15-15V193a15,15,0,0,0-15-15h0"/>
  </g>
  <path class="cls-41" d="M603,254.29v-60.8a10,10,0,0,0-10-10h-60.8a10,10,0,0,0-10,10v60.8a10,10,0,0,0,10,10H593a10,10,0,0,0,10-10"/>
  <path class="cls-40" d="M548.64,212.09l-19.3,35.6a5,5,0,0,0,4.4,7.4h57.9a5,5,0,0,0,5-5,5.33,5.33,0,0,0-.6-2.4l-10.6-19.5a5.06,5.06,0,0,0-6.8-2,4.81,4.81,0,0,0-2,2l-3.4,6.3a2,2,0,0,1-2.7.8,3,3,0,0,1-.8-.8L557.44,212a5.06,5.06,0,0,0-6.8-2,5.78,5.78,0,0,0-2,2.1m36.2-19.4a8.7,8.7,0,1,0,8.7,8.7,8.71,8.71,0,0,0-8.7-8.7h0M360.34,253h-54.5a13.19,13.19,0,0,0-13.2,13.18v54.52a13.2,13.2,0,0,0,13.18,13.2h54.52a13.19,13.19,0,0,0,13.2-13.18V266.19A13.18,13.18,0,0,0,360.36,253h0"/>
  <path class="cls-41" d="M368.74,320.29v-53.7a8.81,8.81,0,0,0-8.8-8.8h-53.7a8.81,8.81,0,0,0-8.8,8.8v53.7a8.81,8.81,0,0,0,8.8,8.8h53.7a8.75,8.75,0,0,0,8.8-8.7v-.1"/>
  <path class="cls-40" d="M320.74,283.09l-17.1,31.5a4.38,4.38,0,0,0,1.8,6,3.84,3.84,0,0,0,2.1.5h51a4.44,4.44,0,0,0,4.4-4.4,4.91,4.91,0,0,0-.5-2.1l-9.3-17.2a4.56,4.56,0,0,0-6-1.8,4.45,4.45,0,0,0-1.8,1.8l-3,5.6a1.7,1.7,0,0,1-2.4.7,1.58,1.58,0,0,1-.7-.7l-10.8-19.8a4.56,4.56,0,0,0-6-1.8,3.51,3.51,0,0,0-1.7,1.7m32-17.1a7.6,7.6,0,1,0,7.6,7.6h0a7.6,7.6,0,0,0-7.6-7.6"/>
  <path class="cls-42" d="M293.24,334.09c3.1-5,11.8-2.1,9.5-6.1,1.2-1.2,3-4.5,1.5-6.1-2-2.1-9.7-4.2-13.2.6-1.1,1.4-2.9,4.9-4.7,7.9-4.1,7-19.3,15.9-21.4,28,1.5,3.6,5.4,22,11.3,30.6,7.6.6,14.4-3.1,13-6.3-2.6-5.9-4.6-15-12.6-24.9,8.3-7.6,11.2-17.6,16.6-23.7"/>
  <path class="cls-43" d="M288.44,393.69c5.5-4,4.5-10.8-.5-15.3-1.3-3.2-5.8-13.9-7.4-16.6-5.2-.9-11.6,4.3-14.8,7.6,2.3,6.8,2.8,10.2,6,17.5,2.4,7.3,10.7,11.1,16.7,6.8"/>
  <path class="cls-44" d="M271.14,578.39c-1.2,5.4-3.2,10.3-1.3,13.5l10.9,10,19.5-.5c1.1-.3,5.1-4.5-1.9-8-3.3-1.2-12.6-3.3-14-11.9.1,0-11-4.9-13.2-3.1"/>
  <path class="cls-42" d="M344.64,342.39c2.1-5.7-3.4-15.9,1.6-15.8h.9l1-1.4c2.2-2.5,11.5,3.2,10.6,7.9,0,0-.2,2.7-2.2,2.1,0,0,.9,3.8-3.1,7.7-1.7,7.5,2.5,27.5-5.8,35.8-3.1,1.7-14,15-22.9,17.8-5.7-3.7-8.8-10.3-4.4-13.5,4.7-3.4,9.8-11.7,21-14.4-.7-11.1,2.9-19,3.3-26.2"/>
  <path class="cls-44" d="M294.84,579.09c-1.5,7.6-3.7,11.5-1.6,15l14.6,10.1,19.4-.3c1.2-.3,5.6-4.7-1.9-8.7-3.5-1.4-14.9-4-16.2-13.4,0,.1-11.9-4.7-14.3-2.7"/>
  <path class="cls-45" d="M279.84,456c-3.5,10.4-3.9,21.1,0,30-.9,11,2.3,28,.2,40.4-9,16.5-6.7,31.2-11,54.9,4.4,1.4,11.4,2,16,2.2,3.8-19.6,7.3-34.5,14.3-52.9,2.4-13.9,3.3-31.3,5.8-45.1l-1.4-27.3c-8.9-.5-15.2-1.8-23.9-2.2"/>
  <path class="cls-46" d="M277.64,582.89l7.3.5c3.8-19.6,7.3-34.5,14.3-52.9,2.4-13.9,3.3-31.3,5.8-45.1l-.6-10.8-13.1-2.7c3.1,9.9,5.6,46.4,2.4,57,0,0-11.7,15.4-16.1,54"/>
  <path class="cls-45" d="M289.34,456s-4.8,20.2,8.2,33.1c2,12.2,4.2,25.8,8.3,37-9.3,15.9-7.3,35.5-12.3,56.2,4.5,3,11.6,3.9,16.8,3.5,3.2-20.3,15.3-48.2,16.1-60-2-19.7-2.2-48.4-5.8-69l-31.3-.8Z"/>
  <path class="cls-42" d="M307.24,344.19s7.1,5.6,6.3,26c-.6.7-4.8,2.5-7.3,3.6-.6,1.2.5,6.1,1.2,8.5,0,0-15.3,2.2-21.4-.6,0,0,1.9-5.5.7-6.9,0,0-11.3-18.3-8.5-28.9,0,0,1.1-10.4,8.8-9.7.1,0,19.1-4.4,20.2,8"/>
  <path class="cls-43" d="M286.94,377.89s11.9,1.9,21.5.7l1.4,3.1c2.5.4,7,.9,8.6,1.8-4.9,4.5-.5,10,2.2,15.4.3,15.6,0,9.6-1.5,25.1,1.8,18.2,8.1,21.6,2.8,34.7-5.3,7.7-43.5,11.6-46.4,2.1s3.8-11.3,4.3-22c-5.3-16.5-13-43-1.6-53.8,1.6-1.5,3.9-2.5,7-4.4.6-.5,1-2.3,1.7-2.7"/>
  <path class="cls-47" d="M318,383.29l.4.2c-4.9,4.5-.5,10,2.2,15.4.3,15.6,0,9.6-1.5,25.1,1.8,18.2,8.1,21.6,2.8,34.7-3.5,5-20.7,8.4-33.2,7.6,35.1-8,27-26.8,27-26.8a74.69,74.69,0,0,1-1.1-21.1c2.3-17.5-7.7-21.8-7.7-21.8l11.1-13.3Z"/>
  <path class="cls-48" d="M311.74,346.39a7.07,7.07,0,0,1,2.5.2,10,10,0,0,0-6.2,4.8c1.5,2.4,1.2,6.6,1.4,9-6.8-8.3-2,13-8,14.5,0,0-10.3,2.5-15.1-.4-2.7-6.6-3.8-8-6.4-10.6a13.84,13.84,0,0,1-3-3.4c-4.4-6.9-2.6-11.2-2.6-11.2l-2.8-4.2,3.9.6c-.5-2,.1-4.7,1.2-7.5a5.88,5.88,0,0,0,1.4,3.7c13.3-20.6,26.6-1.1,34.1-8.3-1.1,4.4-3.6,5.7-3.6,5.7,3.6.8,7.9-2.8,7.9-2.8.1,4.9-1.7,8-4.7,9.9"/>
  <path class="cls-49" d="M306.34,353.49c.9-.2,2.1,2.1,2.7,5s.3,5.5-.6,5.7-2.1-2.1-2.7-5-.3-5.6.6-5.7"/>
  <path class="cls-43" d="M306.64,394.39c.8-6.4,6.9-12.3,13.1-13.6,2.6-2,10.1-6.8,12.6-8.3,4.7,1.6,8.8,9.2,10.1,13.2-5.1,4.5-6.5,6.4-12.6,10.9-5.4,4.7-24.2,6.1-23.2-2.2"/>
  <path class="cls-5" d="M627.24,513.69h-62.3a15.26,15.26,0,0,0-15.2,15.2v62.3a15.26,15.26,0,0,0,15.2,15.2h62.3a15.26,15.26,0,0,0,15.2-15.2v-62.3a15.32,15.32,0,0,0-15.2-15.2"/>
  <path class="cls-50" d="M636.84,590.69v-61.4a10.07,10.07,0,0,0-10-10.1H565.34a10.07,10.07,0,0,0-10.1,10v61.46a10.08,10.08,0,0,0,10,10.1h61.46a10.07,10.07,0,0,0,10.1-10v-.06"/>
  <path class="cls-40" d="M581.94,548.09l-19.5,36a5.19,5.19,0,0,0,2,6.9,5,5,0,0,0,2.4.6h58.4a5.12,5.12,0,0,0,5.1-5.1,5,5,0,0,0-.6-2.4l-10.6-19.6a4.89,4.89,0,0,0-6.8-2,4.81,4.81,0,0,0-2,2l-3.4,6.3a1.89,1.89,0,0,1-1.8,1.1,2.11,2.11,0,0,1-1.8-1.1L591,548.09a4.89,4.89,0,0,0-6.8-2,4.16,4.16,0,0,0-2.3,2m36.5-19.6a8.7,8.7,0,1,0,8.7,8.7h0a8.58,8.58,0,0,0-8.7-8.7"/>
  <path class="cls-12" d="M656.94,547.79h-39.4a9.6,9.6,0,0,0-9.6,9.6v39.3a9.6,9.6,0,0,0,9.6,9.6h39.4a9.6,9.6,0,0,0,9.6-9.6v-39.3a9.67,9.67,0,0,0-9.6-9.6"/>
  <path class="cls-13" d="M663,596.39v-38.7a6.44,6.44,0,0,0-6.4-6.4h-38.7a6.44,6.44,0,0,0-6.4,6.4v38.7a6.44,6.44,0,0,0,6.4,6.4h38.7a6.38,6.38,0,0,0,6.4-6.36v0"/>
  <path class="cls-12" d="M628.34,569.49,616,592.19a3.13,3.13,0,0,0,1.3,4.3,2.82,2.82,0,0,0,1.5.4h36.8a3.24,3.24,0,0,0,2.8-4.8l-6.7-12.4a3.18,3.18,0,0,0-5.6,0l-2.2,4a1.35,1.35,0,0,1-1.1.7,1.23,1.23,0,0,1-1.1-.7l-7.8-14.3a3.28,3.28,0,0,0-4.3-1.3,8.31,8.31,0,0,0-1.3,1.4m23.1-12.3a5.5,5.5,0,1,0,5.5,5.5h0a5.55,5.55,0,0,0-5.5-5.5"/>
  <path class="cls-51" d="M686.94,587s-1.2,6.9-1.1,9a3,3,0,0,0,.5,1.5c.3.5.5,4.4.5,6.4,0,.9.6.6.8.7.5.5,1.2-4.4,1.2-4.4s.6-1.5,3.2,9.8c0,0-.8,4.8,7.2,7.3,0,0,3.7,2.3,6.9-.1,0,0,1.4-1.6.3-4.6a22.49,22.49,0,0,1-4.2-12.6,17.39,17.39,0,0,0-3.3-8.2s-.9-3.3-2-3.8c-6.8,2.3-8.7-2-10-1"/>
  <path class="cls-52" d="M725.94,588.19s-1.2,7,0,8.8c.5.7.3,5.1.7,7.2.2.9.9.6,1.2.7.5.4,1.3-5.2,1.3-5.2s1.2-2.1,7.6,7.4c0,0,.9,4.7,9.2,4.2,0,0,4.2.9,6.3-2.6,0,0,.8-1.9-1.4-4.4a21.26,21.26,0,0,1-8.3-10.2,18.65,18.65,0,0,0-6-6.5s-3-1.5-4-.5c-.8,1.3-6.6,1.1-6.6,1.1"/>
  <path class="cls-45" d="M738.44,588.49s-14,2.6-13.2-.4c5.4-20-3.5-32.2.3-49.8,1.8-8.2-6.8-22.7-7.6-23.9l-10.4-47.7,33.7-1.6c3,12.4,2.8,40.2,1.2,70.6-.9,15.8-5.1,33-4,52.8"/>
  <path class="cls-46" d="M730.14,589.59c-2.8.1-5.3-.1-4.9-1.5,5.4-20-3.5-32.2.3-49.8,1.8-8.2-6.8-22.7-7.6-23.9l-7.9-36,23.6-5c-4.3,9.4-8.7,29.8-3.2,55.5a23.13,23.13,0,0,1,0,9.8c-.7,3.3-1,8-.4,15.2a214.1,214.1,0,0,1,.1,35.7"/>
  <path class="cls-45" d="M696.74,464.29c-11.2,20.8,7.2,34.1,3.6,70.4-.2,1.9.2,4.4-1.3,5.8-6,5.8-10.1,29.3-12.5,49.4,5.3,1.7,6,1.7,11.9.3,2.9-19.6,13.7-33.8,17.9-48.5,3.1-10.7,4.7-22.8,7-34.2,1.7-8.7,2.1-15.3,7.3-23a55.51,55.51,0,0,0,8.4-21.7Z"/>
  <path class="cls-46" d="M696.74,464.29c-11.2,20.8,7.2,34.1,3.6,70.4-.2,1.9.2,4.4-1.3,5.8-6,5.8-10.1,29.3-12.5,49.4,1.2.4,2.5.8,3.8,1.1.7-17.6,13.8-49.4,13.8-49.4,4.7-18.4-.2-48.7-.2-48.7-1.8-7.4-.5-18.6,1.5-28.9l-8.7.3Z"/>
  <path class="cls-42" d="M761,395.89c-1.6-3.2-3.7-5.9-2.3-9.2-1.9-1.5-.3-4.2.9-5.6.5-.7,4.7-2.2,7.8,1.2,2.1,2.1,4,4.7.1,12.9-.7,11.5,4.5,20.4-.8,32.9-8.7,2.4-25.4-8.4-29.2-9.1-13.7-3.6-12.3-11.9-7.3-16.9,1.4-1.2,19.9,10.6,29.8,16.5-1-5.4,1-11.4,1-22.7"/>
  <path class="cls-47" d="M722,397.89c7.3-4.3,17.3,1.3,21.2,5.3,9.6,9.8,10.1,9.1,14.5,13.7l-9.2,10.6L726.24,410Z"/>
  <path class="cls-21" d="M726.24,396.49c6.5-.9,13.8,3.5,17,6.7,9.6,9.8,10.1,9.1,14.5,13.7l-6.5,7.5-21-16.4Z"/>
  <path class="cls-47" d="M727,391.19c3.1,6.4,26,24.7,14,36.4-4.9,4.8-4,15.2-2.6,25,0,0,6.6,9.7,2.1,14.7-5.9,3.2-18.8,1.6-25.1,2.2,0,0-13.7,3.2-18-2.8-3.9-5.4-.6-6.5.2-14.2,2.1-19.3-5-40.8-4.6-51.6,2.1-3.8,12.3-11.8,14.5-11l19.5,1.3Z"/>
  <path class="cls-21" d="M727,391.19c3.1,6.4,26,24.7,14,36.4-4.9,4.8-4,15.2-2.6,25,0,0,3.8,5.5,3.7,10.3-6.3.7-14.1,0-18.6.5,0,0-13.7,3.2-18-2.8-3.9-5.4-.6-6.5.2-14.2,1.5-13.8-7.6-30.1-12.6-42.2-.1-1.2-.1-2.3-.1-3.3,2.1-3.8,12.3-11.8,14.5-11Z"/>
  <path class="cls-42" d="M719.14,469.39c2.1.8,5.3.8,10-.8,1-.3,5-6.3,2.6-5.4a25.91,25.91,0,0,1-5.8,1.2c-1.1-.1-3-.4-3.4-1.4-.1-.3.7-2.8,1.9-2.6l2.3.3c.4.1,1.9-.4,1.5-.6a8.68,8.68,0,0,1-2.2-1.7c-.5-.6-7.7-.5-8.4-.8-5.9-2.4-12.5-11.6-19.8-13.5l.8-12.6-12.3-1.2c.3,3.9,1.3,9.3,1.5,15.1,6.5,10.6,17.7,9.4,25.9,17.3a37.78,37.78,0,0,1,5.4,6.7"/>
  <path class="cls-21" d="M698.64,433.79c.6-8.4,6.2-15.6,6.4-20-2.8-38-19.4-8.6-18.7,17,6,.4,9,1,12.3,3"/>
  <path class="cls-53" d="M731.14,390.19s-3.7,3.3-1.8,7.4c0,0-2.2,5.2-9.4,3.8-3.8-.8-13-8.6-11.9-13.6,0,0,1.7.1,2.2-.9a28.47,28.47,0,0,0,1.7-11.9l19.2,15.2Z"/>
  <path class="cls-42" d="M736,372.69s.8,7.1.3,11.1c.4,2.8-4.1,9.2-6.5,9.9-1.3.4-5.1.6-13.1-4.6a23.12,23.12,0,0,1-4.9-5.4s-8.8-12.8-6.6-17.9c0,0,3.4-11.9,14.2-12.1,0,0,12.4-2.2,14.5,3.9,4.1,5.6,2.6,10.4,2.1,15.1"/>
  <path class="cls-48" d="M718.84,398.39s-6.9-12.6-7.3-21.8c4.6,1.3,18.8-6,19.3-12.8,0,0,5.7,5.2,5.2,29.8,0,0,7.4.3,8.6-7.1-.5-12.7-7.9-38.2-23.3-37.2-13,.9-18.1,8.2-19.5,18.3-2,15.2,1.9,35.5,17,30.8"/>
  <path class="cls-15" d="M806.94,330.39h0a1,1,0,0,0-1.4.3h0l-15,21.8a1,1,0,0,0,.3,1.4h0a1,1,0,0,0,1.4-.3h0l15-21.8a1,1,0,0,0-.3-1.4m14.8,18.1h0a1.11,1.11,0,0,0-1.4-.5h0l-23.9,11.3a1.11,1.11,0,0,0-.5,1.4h0a1.11,1.11,0,0,0,1.4.5l23.9-11.3a1.15,1.15,0,0,0,.5-1.4m3.7,23h0a1,1,0,0,0-.9-1.1l-26.4-2.1a1,1,0,0,0-1.1.9h0a1,1,0,0,0,.9,1.1h0l26.4,2.1a.9.9,0,0,0,1.1-.9"/>
  <path class="cls-8" d="M753.34,385.59a11.81,11.81,0,0,0,3.8,3.2,5.2,5.2,0,0,0,2.7-.5l8.6,7.6a7.89,7.89,0,0,0,3-4.7c-1.5-2.2-6-3.6-8.1-6.1v-4.3a5.24,5.24,0,0,0-3.7.1c-.1,1.3-2.6,2.9-6.3,4.7"/>
  <path class="cls-9" d="M751.94,386.09a11.81,11.81,0,0,0,3.8,3.2,5.2,5.2,0,0,0,2.7-.5l8.6,7.6a7.89,7.89,0,0,0,3-4.7c-1.5-2.2-6-3.6-8.1-6.1v-4.3a5.24,5.24,0,0,0-3.7.1c0,1.4-2.5,2.9-6.3,4.7"/>
  <path class="cls-10" d="M771.34,391.19l-1.4.6c-.2,1.8-1.9,3.8-3,4.7l1.4-.5c.9-.9,2.8-2.7,3-4.8"/>
  <path class="cls-54" d="M744.94,376.19l11.1-5.1,5.2,11.3-11.1,5.1a5.32,5.32,0,0,1-7-2.6l-.7-1.6a5.12,5.12,0,0,1,2.5-7.1"/>
  <path class="cls-12" d="M758.84,377.19l2.3,5.1-11.1,5.1a5.43,5.43,0,0,1-6.5-1.7l15.3-8.5Z"/>
  <path class="cls-14" d="M758.54,383.59c12.1-4.2,19.6-2.2,29.7-.1l-15.4-33.7c-5,9-8.4,16-19.5,22.4h0a17.06,17.06,0,0,0,5.2,11.4Z"/>
  <path class="cls-9" d="M758.54,383.59c12.1-4.2,19.6-2.2,29.7-.1l-8.2-17.9-24.7,13.6a17.1,17.1,0,0,0,3.2,4.4Z"/>
  <path class="cls-15" d="M774.44,348.09c4.2-1.9,11.2,4.4,15.6,14.2s4.7,19.2.5,21.1-11.2-4.4-15.6-14.2-4.7-19.2-.5-21.1"/>
  <path class="cls-5" d="M774.54,348.39c4-1.9,10.9,4.4,15.3,14s4.7,18.9.7,20.8-10.9-4.4-15.3-14-4.8-19-.7-20.8"/>
  <path class="cls-16" d="M775.34,350.19c3-1.4,8.6,4.5,12.6,13s4.7,16.6,1.7,18-8.6-4.5-12.6-13-4.7-16.6-1.7-18"/>
  <path class="cls-4" d="M778.54,361.49h0c1.1-.5,2.7,1.5,3.9,4.2s1.7,5.2.6,5.7h0c-.1,0-.2.1-.3.1l-3.5.9-2.2-4.3-1.9-4.6,3.1-1.9c.1.1.1,0,.3-.1"/>
  <path class="cls-17" d="M778.64,361.49c.9-.4,2.6,1.5,3.8,4.3s1.6,5.3.8,5.7-2.6-1.5-3.8-4.3-1.6-5.4-.8-5.7"/>
  <path class="cls-48" d="M506.14,368.59s-9.9-11.1-3-14.7c-.1-15.7,40.1-6.8,23.1,27-1.9,3.8-6.4,17.9,2.8,17.9-5.8,10.1-31.3,1-22.9-30.2"/>
  <path class="cls-51" d="M534.34,585.29s1.2,7,1.1,9.2a2.69,2.69,0,0,1-.5,1.5,26.39,26.39,0,0,0-.5,6.5c0,.9-.6.6-.8.7-.5.5-1.2-4.5-1.2-4.5s-.6-1.5-3.2,10c0,0,.8,4.9-7.3,7.4,0,0-3.8,2.4-7-.1,0,0-1.4-1.6-.3-4.7,0,0,4.4-5.7,4.2-12.8a19.75,19.75,0,0,1,3.3-8.4s.9-3.4,2-3.9c6.9,2.4,8.8-2,10.2-.9"/>
  <path class="cls-52" d="M495.14,587.39s1.2,7.1,0,9c-.5.7-.3,5.2-.8,7.3-.2.9-.9.6-1.2.8-.5.4-1.3-5.3-1.3-5.3s-1.2-2.1-7.7,7.6c0,0-1,4.8-9.4,4.3,0,0-4.3.9-6.4-2.6,0,0-.8-2,1.4-4.4a22.3,22.3,0,0,0,8.5-10.4,19.24,19.24,0,0,1,6.1-6.6s3.1-1.5,4-.5,6.8.8,6.8.8"/>
  <path class="cls-55" d="M482.44,587.59s14.2,2.7,13.3-.4c-5.5-20.3,3.6-32.6-.3-50.4-1.8-8.3,6.9-22.9,7.6-24.2l10.6-48.3-34.1-1.6c-3,12.5-2.9,40.7-1.2,71.5,1,15.8,5.2,33.3,4.1,53.4"/>
  <path class="cls-48" d="M490.84,588.59c2.9.1,5.3-.1,5-1.5-5.5-20.3,3.6-32.6-.3-50.4-1.8-8.3,6.9-22.9,7.6-24.2l8-36.4-23.9-5.1c4.3,9.4,8.8,30.1,3.3,56.2a23.6,23.6,0,0,0,0,9.9c.7,3.4,1.1,8.1.4,15.4-.2,0-1.8,19.3-.1,36.1"/>
  <path class="cls-55" d="M524.64,461.69c11.3,21-7.2,34.6-3.6,71.2.2,1.9-.2,4.4,1.3,5.8,6.1,5.9,10.3,29.7,12.6,50-5.3,1.7-6.1,1.7-12.1.3-2.9-19.8-13.8-34.2-18.1-49.1-3.1-10.8-4.8-23.1-7.1-34.6-1.7-8.8-2.1-15.5-7.4-23.3a54.34,54.34,0,0,1-8.5-22l42.9,1.7Z"/>
  <path class="cls-48" d="M524.64,461.69c11.3,21-7.2,34.6-3.6,71.2.2,1.9-.2,4.4,1.3,5.8,6.1,5.9,10.3,29.7,12.6,50-1.6.5-2.8.9-3.8,1.1-.7-17.8-14-50-14-50-4.8-18.6.2-49.2.2-49.2,1.8-7.4.5-18.9-1.6-29.3Z"/>
  <path class="cls-42" d="M439.14,370.29c-3-4.8-2.8-8.4-5.1-12.5s-7.1-6.2-12.3-10.9c-1.9,1.2.2,3.4,6.1,10-.8-.1-7.3,3.8-5.2,9.1,0,0,1.2,3.9,4.1,3.6,0,0,.7,3.7,5.7,4.5,6.9,7.4,17.4,24,27.8,29.8,3.6.7,28.2,8.4,31.1,5.1,7.8-7.5,1.3-14.1-4.9-14.2-1.6,0-15,.3-22.3.9-4.1-8.5-17.4-15.8-25-25.4"/>
  <path class="cls-56" d="M496,396.39c-5.5-1.9-23.5-2.1-30.8-1.7-7-8.7-14.9-14.2-23-20.9a19.07,19.07,0,0,0-5.2,6.4c6.6,8.8,11.9,16.7,21,24.9l30.2,9.9c10.4,1.4,14.8-16.2,7.8-18.6"/>
  <path class="cls-57" d="M439.14,377a13.85,13.85,0,0,0-2,3.3c6.6,8.8,11.9,16.7,21,24.9l30.2,9.9c5.7.7,9.6-4.3,10.8-9.4-11.3-.6-29.2-2-38.2-4.5-.1-.1-12.3-13.9-21.8-24.2"/>
  <path class="cls-56" d="M492.84,390.79c-3.1,6.4-24.5,22.2-14.1,36.6,4.1,5.7,5.1,13.6,3.8,23.5,0,0-6.7,9.8-2.1,14.8,6,3.2,17.8,5,24.1,5.6,0,0,13.8,1.5,18.2-4.6,3.9-5.4.6-6.5-.2-14.3-2.1-19.4,4.6-40.7,4.3-51.6-2.2-3.9-13.5-12.3-15.7-11.4l-18.3,1.4Z"/>
  <path class="cls-57" d="M482.84,466.69c6.3,2.5,16.1,3.9,21.6,4.4,0,0,13.8,1.5,18.2-4.6,3.9-5.5.6-6.5-.2-14.3-2.1-19.4,4.6-40.7,4.3-51.6a14.63,14.63,0,0,0-.9-1.3l-10,11.4s2.8,27.1-.6,39.7c-.1.1-1.6,17.2-32.4,16.3"/>
  <path class="cls-53" d="M488.64,392.29s3.7,3.4,1.8,7.4c0,0,2.2,5.2,9.4,3.8,3.9-.8,13.1-8.7,12.1-13.7,0,0-1.7.2-2.3-.9a28.7,28.7,0,0,1-1.7-12Z"/>
  <path class="cls-58" d="M510.24,351.19a5.75,5.75,0,1,0,4.2,7.3,6,6,0,0,0-4.2-7.3"/>
  <path class="cls-12" d="M509.54,352c-3.7-1.2-7.5.3-8.4,3.4s1.3,6.4,5,7.6,7.5-.3,8.5-3.4-1.4-6.5-5.1-7.6"/>
  <g>
    <path class="cls-42" d="M513.24,378.19c-1.6-1.4-4.5-.7-6.5,1.5s-2.4,5.3-.8,6.6,4.5.7,6.5-1.5,2.4-5.2.8-6.6"/>
    <path class="cls-42" d="M484,375.39s-.6,7.1,0,11c-.3,2.8,4.3,9.1,6.7,9.8,1.3.4,5.1.4,12.9-4.8a22.9,22.9,0,0,0,4.8-5.5s8.5-13,6.3-18c0,0-3.6-11.8-14.4-11.7,0,0-12.4-2-14.4,4.2-4.1,5.5-2.5,10.3-1.9,15"/>
  </g>
  <path class="cls-59" d="M482.84,380l1-5.7c5.3,2.8,16.2,3.2,21.6-3.9-1.4,5.6,1.7,8.6,4.2,10.2l-1.9,6,5.2-8.5c5.9-8.1,8.4-20.1-2.5-24.4-13-7-25.1.3-27.2,13.6-.6,4.5-1,12.5-.4,12.7"/>
  <path class="cls-12" d="M481.94,447l-38.8,21a10.78,10.78,0,0,0-4.3,14.6l21,38.8a10.78,10.78,0,0,0,14.6,4.3l38.8-21a10.78,10.78,0,0,0,4.3-14.6l-21-38.8a10.75,10.75,0,0,0-14.6-4.3"/>
  <path class="cls-13" d="M513.84,491.69l-20.7-38.2a7.18,7.18,0,0,0-9.7-2.8l-38.2,20.6a7.12,7.12,0,0,0-2.9,9.7l20.7,38.2a7.12,7.12,0,0,0,9.7,2.9l38.2-20.7a7,7,0,0,0,2.9-9.7"/>
  <path class="cls-12" d="M465.34,483.69v29a3.59,3.59,0,0,0,3.6,3.6,3.29,3.29,0,0,0,1.7-.4l36.4-19.7a3.7,3.7,0,0,0,1.5-4.9,3.74,3.74,0,0,0-1.2-1.3l-13.2-8.6a3.59,3.59,0,0,0-5,1.1,3.29,3.29,0,0,0-.6,1.9v5.1a1.56,1.56,0,0,1-.8,1.3,1.37,1.37,0,0,1-1.5-.1l-15.3-10a3.65,3.65,0,0,0-5,1,3.61,3.61,0,0,0-.6,2m16.1-24.5a6.2,6.2,0,1,0,8.4,2.5,6.12,6.12,0,0,0-8.4-2.5h0"/>
  <path class="cls-42" d="M535.84,438.89c-6.7,2.7-17.4,12.9-29.5,25,0,0-7.6-1.6-8.8.7,0,0-3.1,4.6-2,6.4a2.37,2.37,0,0,0,1.6,1s2.2,3.1,3.9,3.5c.4.7,4.3.4,6.2-2.2,1.2.2,4.2-1.1,5-4.8,3.5-2.6,37.7-19.3,33.3-28.8-5.2-11-9.5-27.6-19.7-40.3-8.6-1.1-10.3,1.8-7.4,15.8,7,8.3,10.3,15.4,17.4,23.7"/>
  <path class="cls-56" d="M520.84,396.89c12.4,2.2,21.9,34.1,25.2,42.4,0,13.4-23.6,20.8-30.2,28.5-3.4.3-6.6-3.7-7.3-6.2,5.1-5.4,18.5-19,25.5-22.7l-17.5-24.6c0-.1-4.8-14.1,4.3-17.4"/>
  <path class="cls-49" d="M605.14,172c.3,1,1.3,7.1-3,10.6a5.16,5.16,0,0,1-5.2.7c-1.2-.6-3.6,2.1-3.8,3.8-.1,1.1-8.2,3.2-8.9.5-.5-1.8-1.7-6.6.4-9.9,2.8-4.4,11.6-7.7,11.7-7.8,5.5-11.9.6-25.6,5.8-35.7a77.6,77.6,0,0,1-7.1-14.1l13.4-9c3,5,4.4,14.9,7.6,20.6-1.6,16.1-8.8,24.1-10.9,40.3"/>
  <path class="cls-60" d="M537,82.79c-6.6,3.1-5.5,17.3,3.9,53.5l.2.5h49l.2-.5c6.4-35,8.7-48.8,1.1-53.4l-16.8-7.6c-3.6-1.4-7.6-2.2-9-1.8-1.4-.4-5.4.4-9,1.8L537,82.79Z"/>
  <path class="cls-61" d="M570.24,136.79h19.9l.2-.5c4.4-24,6.9-38,5.5-45.9l-3.8-1.6c0-.1,3,38.6-21.8,48m9.4-59.2-5-2.2c-3.6-1.4-7.6-2.2-9-1.8-1.4-.4-5.4.4-9,1.8l-6.6,2.5c-.1,8.9,7,15.1,14.9,14.5,10.6-.8,14.4-5.6,14.7-14.8"/>
  <path class="cls-49" d="M522.54,171.19c-.3.9-1.5,7,2.7,10.6a5.19,5.19,0,0,0,5.2.9c1.3-.6,3.6,2.3,3.7,3.9.1,1.1,8.1,3.5,8.9.8.6-1.8,1.9-6.5-.1-9.9-2.7-4.5-11.3-8-11.4-8.1-5.1-12,.2-25.6-4.7-35.9a80.55,80.55,0,0,0,7.6-13.8l-13.6-9.4c-3.1,4.9-4.3,14.8-7.7,20.3,1,16.2,7.9,24.5,9.4,40.6"/>
  <path class="cls-60" d="M538.94,83.09c-7.4,1.1-12.8,4.5-16.8,20.6-.2.6-7.2,15-6.8,15.4,2.9,3,10.9,5.7,16.6,6.8,2.2-4.3,4-12.8,5.7-17.3,2-1.3,5.3-23.8,1.3-25.5m52.2.3c7.3,1.3,12.7,4.9,16.1,21.2.1.6,6.6,15.3,6.2,15.7-2.4,2.2-10.3,5.1-16,6.5-2-4.9-3.7-11.9-5.9-17.7-2-1.5-4.5-24.2-.4-25.7"/>
  <path class="cls-53" d="M554.34,70.49s2.3,4.7-1.1,8c.3,12.2,23.6,12.4,23.5,0-3.4-3.3-1.1-8-1.1-8l-10.4-3.2v-.2l-.3.1-.3-.1v.2l-10.3,3.2Zm27.2-14c-1.9-.9-4.5.7-5.8,3.4s-.7,5.7,1.2,6.6,4.5-.7,5.8-3.4.7-5.7-1.2-6.6m-32.2-.6c1.9-.9,4.5.7,5.8,3.4s.7,5.7-1.2,6.6-4.5-.7-5.8-3.4-.8-5.7,1.2-6.6"/>
  <path class="cls-42" d="M581.14,57.79s-1.4,9.3-3.5,13.5c-1.1,2.8-9,8.5-11.9,8.3-3.9-.3-10.6-4.2-12.3-8.3-2.1-4.1-3.5-13.5-3.5-13.5-2.4-5-2.5-7.1-1.2-14.6,0-7.6,12.5-8.9,12.5-8.9a12.42,12.42,0,0,1,8.5,0s12.3,1.4,12.4,8.9c2.5,7.9,1.4,9.6-1,14.6"/>
  <path class="cls-48" d="M570.94,69c-1.9.9-9.3.9-11.3,0,0,0-.2,1.2,1.6,2.3a12.49,12.49,0,0,0,8.1,0c1.8-1.1,1.6-2.3,1.6-2.3m8.9-6.4c-.2,1-2.6,4.3-5.9,4a4.39,4.39,0,0,0-3.8-1.2c.1-.2-2.2-2.1-4.8.3a3.06,3.06,0,0,0-4.8-.3c-1.5-.5-3.9.7-3.8,1.2-3.5.3-5.8-3.1-5.9-4.4l-.6-.6a8.3,8.3,0,0,0,.6,4.4,7.79,7.79,0,0,0,2.5,5.9c-1.5,3.3,1.8,6.5,2.8,6.6,1.1,3.5,3.9,3,3.9,3a9.76,9.76,0,0,0,10.4,0s2.9.5,3.9-3c1.1-.2,4.4-3.3,2.8-6.6a7.32,7.32,0,0,0,2.5-5.9,8.3,8.3,0,0,0,.6-4.4l-.4,1Zm.8-12.3-.1,11.1.6-.1s2.7-8,2.9-9.7c1.5.6,6.6-6.6.7-10.1.9-1.3-1.8-12.4-8.6-8.8,0-.7-4.3-6.9-9.4-.4-.1-.8-4.8-4.8-8.7-.7-.5-.5-7.9-.9-7.8,6-.6-.5-7.5.1-6.1,7.3a5.39,5.39,0,0,0,3.1,5.4l2.8,11.1c0,.2.7,0,.7,0l-.2-10.6a9.23,9.23,0,0,0,10.4-1.1c.6,1.1,7.5,3.6,11.1-.1.5,1,5.5,3.7,8.6.7Z"/>
</svg>
